<svg width="2224" height="2033" viewBox="0 0 2224 2033" fill="none" xmlns="http://www.w3.org/2000/svg">
<g clip-path="url(#clip0_3210_5442)">
<path d="M1956.81 1376.97C1956.18 1374.46 1955.55 1371.95 1954.61 1369.44C1949.59 1354.37 1941.11 1340.55 1930.43 1328.31C1872.02 1260.5 1745.46 1231.3 1745.46 1231.3C1620.16 1216.86 1608.85 1119.53 1608.85 1119.53C1668.83 1071.5 1693.64 1003.69 1693.64 1003.69C1783.14 966.642 1759.28 837.611 1759.28 837.611C1745.78 823.169 1719.4 682.835 1719.4 682.835C1594.72 436.387 1368.92 540.617 1330.3 560.709C1329.04 561.338 1327.79 561.964 1327.16 562.593C1325.59 563.533 1324.64 564.162 1324.64 564.162C1297.64 605.603 1284.13 658.032 1279.11 713.915C1280.68 714.542 1282.25 715.171 1283.5 715.799C1292.93 720.193 1300.15 726.16 1301.09 733.381V806.216C1307.37 779.53 1318.68 760.379 1340.66 759.438C1340.66 759.438 1340.66 759.438 1340.97 759.75C1342.23 759.75 1343.8 759.438 1345.37 759.438C1345.37 759.438 1397.19 802.134 1362.33 897.574C1362.33 897.574 1345.68 968.526 1304.86 965.387C1303.6 965.387 1302.35 965.387 1300.78 965.387C1300.78 965.387 1299.52 965.387 1298.89 965.387C1298.89 966.642 1299.21 967.585 1299.52 968.84C1305.17 997.408 1311.14 1023.78 1316.48 1046.07C1317.73 1051.1 1318.99 1056.12 1319.93 1061.14C1325.9 1086.26 1330.93 1105.41 1333.12 1116.4C1333.12 1117.34 1333.12 1118.28 1333.44 1118.91C1333.44 1120.79 1334.07 1122.36 1334.07 1123.62C1335.95 1155.01 1314.91 1180.13 1309.26 1186.09C1308.31 1187.03 1308 1187.66 1308 1187.66L1326.84 1192.06L1345.37 1196.14C1360.45 1180.13 1368.61 1160.03 1372.06 1137.12C1450.26 1177.93 1519.98 1169.45 1584.36 1132.41C1591.27 1185.46 1619.84 1216.23 1659.1 1236.32C1662.55 1291.89 1634.6 1335.85 1595.04 1375.72L1594.09 1376.66L1591.58 1387.02L1589.38 1396.75H1957.12C1957.12 1384.82 1957.12 1376.97 1957.12 1376.97M1368.61 1094.73C1366.73 1093.48 1364.84 1092.54 1362.96 1091.28C1344.43 1083.75 1330.93 1074.01 1324.64 1060.83C1322.45 1056.12 1321.19 1051.41 1321.19 1045.76C1321.19 1045.13 1321.19 1044.5 1321.19 1043.87C1358.56 1050.47 1387.45 1041.05 1410.06 1018.13C1410.06 1018.13 1410.38 1017.82 1410.69 1017.5C1408.81 1017.5 1407.24 1017.82 1405.67 1018.13C1387.45 1019.39 1374.26 1013.42 1367.35 998.98C1359.5 982.339 1360.13 953.772 1371.75 910.133C1391.85 854.564 1393.73 793.029 1385.57 727.729C1384.63 721.763 1384 715.799 1383.06 709.833C1383.06 709.519 1383.06 708.893 1383.06 708.578C1380.54 691.311 1377.09 674.044 1373.32 656.463C1374.26 656.463 1375.2 656.777 1375.83 657.089C1452.77 674.044 1523.75 677.498 1584.67 656.463C1626.44 647.672 1653.45 676.24 1662.87 750.019C1673.54 813.749 1670.72 873.086 1640.26 923.632C1659.41 927.714 1675.43 904.481 1684.22 822.54C1700.24 788.949 1715.94 788.635 1731.33 841.065C1740.44 899.143 1727.25 948.434 1671.66 981.084C1600.37 1113.26 1508.36 1179.5 1369.24 1094.42" fill="black" fill-opacity="0.03"/>
<path d="M846.006 814.691C847.576 793.027 849.46 764.774 851.03 738.088L846.006 814.691ZM915.409 1188.91V1187.66V1185.46L884.319 1127.38L893.739 1118.59L895.623 1116.71L933.622 1080.92L900.022 1000.23L848.202 863.667L843.807 852.364L850.401 874.968L877.096 967.583V1015.93L900.962 1036.34L897.823 1045.76L897.193 1047.64C914.78 1054.55 801.725 1131.46 778.173 1122.36V1089.08H726.356V1118.91C639.993 1105.4 583.781 1058.63 555.202 981.397C555.202 981.397 443.09 917.978 515.633 808.413C515.633 808.413 556.145 834.156 560.855 934.305C560.855 934.305 610.473 991.443 580.012 902.595C549.548 814.062 547.978 604.66 691.497 656.461C691.497 656.461 769.694 782.667 835.643 720.821L839.097 723.96L843.492 727.727L851.971 735.575C852.915 718.308 853.856 701.67 854.17 688.171C854.17 688.171 852.6 688.171 849.775 688.797C848.517 688.797 846.947 689.111 845.062 689.426C825.591 691.624 781.627 693.822 775.345 666.507V664.938L851.657 662.428H854.17C854.17 659.286 854.17 657.09 853.541 655.832C853.541 655.206 853.541 654.892 853.229 654.892C851.971 653.008 854.799 645.472 860.45 635.112C864.219 628.205 868.617 620.043 873.956 611.567C891.228 582.997 913.21 549.718 917.294 543.44C917.605 542.811 917.92 542.499 917.92 542.499C916.979 541.871 916.35 540.93 915.409 540.301C849.146 481.594 736.72 493.209 736.09 498.86C735.461 504.512 633.713 534.649 633.713 534.649C515.948 551.29 487.054 653.949 488.312 785.494C445.601 893.493 466.013 963.501 536.989 1003.37C550.492 1041.67 578.756 1082.8 615.185 1125.5C618.64 1191.74 503.071 1236.95 358.611 1277.14C326.58 1293.46 303.025 1312.61 287.952 1333.96C276.96 1349.66 270.366 1366.61 267.539 1384.82C266.911 1388.59 266.597 1392.67 266.283 1396.75H674.852C676.422 1354.05 689.927 1284.35 759.957 1276.19C759.957 1276.19 759.957 1276.51 760.272 1276.82C761.841 1276.82 763.097 1276.19 764.67 1276.19C792.305 1328.62 822.766 1370.69 857.939 1391.41L909.127 1388.9C850.401 1353.43 799.84 1314.18 781.942 1259.87C826.22 1241.03 871.757 1226.59 918.549 1220.31L915.724 1188.91H915.409ZM855.111 1206.18C848.517 1208.69 840.982 1211.83 832.5 1214.97C778.799 1236.64 695.578 1273.37 662.289 1304.13C654.754 1311.04 650.041 1317.63 648.471 1323.6C648.471 1323.6 648.16 1322.97 647.531 1321.72C640.936 1309.79 604.193 1242.29 608.276 1214.03C608.276 1214.03 641.877 1172.59 641.877 1149.99C676.736 1181.07 712.539 1203.36 750.223 1204.3C798.899 1188.91 833.444 1168.19 857.31 1143.39C862.02 1163.17 868.929 1181.7 881.491 1196.45C881.491 1196.45 871.442 1200.22 855.111 1206.5M753.677 1291.26C712.224 1311.67 694.008 1348.71 692.124 1397.38H830.93C830.93 1397.38 834.073 1397.06 835.643 1396.75C798.899 1366.61 773.148 1330.82 753.992 1291.26M853.856 664.311V671.218V688.797C853.856 681.89 853.856 675.927 853.856 670.904C853.856 668.705 853.856 666.507 853.856 664.623" fill="black" fill-opacity="0.03"/>
<path d="M840.058 1396.12C840.058 1396.12 837.233 1396.43 835.663 1396.75H692.146C694.028 1348.09 712.244 1311.04 753.697 1290.63C754.953 1290.01 756.211 1289.38 757.466 1288.75C776.623 1328.94 802.688 1365.67 840.058 1396.12Z" fill="black" fill-opacity="0.03"/>
<path d="M840.058 1396.12C840.058 1396.12 837.233 1396.43 835.663 1396.75H692.146C694.028 1348.09 712.244 1311.04 753.697 1290.63C754.953 1290.01 756.211 1289.38 757.466 1288.75C776.623 1328.94 802.688 1365.67 840.058 1396.12Z" fill="black" fill-opacity="0.03"/>
<path d="M1596.29 1387.02C1596.29 1383.25 1595.66 1379.17 1595.04 1375.4C1588.13 1321.4 1563.32 1277.14 1502.39 1252.65C1450.89 1231.62 1391.85 1211.52 1326.53 1191.75C1321.82 1190.49 1317.11 1188.92 1312.4 1187.66C1311.14 1187.04 1310.2 1186.72 1309.26 1186.09C1285.08 1174.79 1267.18 1161.61 1273.14 1140.89C1291.36 1139.32 1311.77 1131.78 1333.44 1118.91C1334.7 1117.97 1336.27 1117.03 1337.52 1116.4C1347.57 1110.43 1357.62 1103.21 1368.3 1094.74C1368.61 1094.74 1369.24 1094.11 1369.55 1093.79C1367.36 1092.85 1365.16 1092.22 1362.65 1091.28C1344.12 1083.75 1330.61 1074.02 1324.33 1060.83C1322.13 1056.43 1320.88 1051.41 1320.88 1045.76C1320.88 1045.13 1320.88 1044.5 1320.88 1043.88C1358.25 1050.47 1387.14 1041.05 1409.75 1018.13C1409.75 1018.13 1410.06 1017.82 1410.38 1017.5C1411.95 1015.93 1413.21 1014.36 1414.78 1012.8C1395.93 1013.11 1380.86 1009.34 1371.75 998.667C1361.39 986.423 1359.19 965.388 1368.3 931.169C1392.48 850.798 1396.88 784.869 1389.97 727.416C1389.34 721.138 1388.4 715.487 1387.45 709.523C1387.45 709.209 1387.45 708.58 1387.45 708.265C1384.63 690.372 1380.54 673.103 1375.52 656.779C1368.93 634.175 1360.76 612.511 1351.65 591.476C1351.65 591.476 1345.69 579.235 1332.18 561.654C1331.87 561.025 1331.24 560.396 1330.61 559.77C1300.15 521.154 1233.89 460.248 1116.43 453.655C1017.83 459.307 955.332 502.943 919.532 539.676C918.588 540.619 917.647 541.874 916.704 542.817C891.896 569.187 881.219 591.165 881.219 591.165C878.39 597.757 875.565 604.349 873.052 610.942C869.912 618.792 867.086 626.639 864.261 634.489C862.062 641.396 859.548 648.303 857.664 655.21C857.037 657.408 856.408 659.604 855.779 661.802C855.153 664.315 854.524 666.51 853.898 669.023C853.898 669.023 853.898 669.338 853.898 669.649C852.325 675.615 850.755 681.582 849.5 687.86C849.5 687.86 849.5 688.174 849.5 688.488C846.986 699.475 845.104 711.093 843.532 722.708C843.532 723.963 843.532 725.218 843.22 726.476C838.195 766.973 839.136 811.555 848.244 862.413C848.87 866.181 849.5 869.634 850.44 873.402C854.209 891.612 858.922 910.763 864.887 930.54C882.159 994.585 858.922 1012.8 818.41 1011.85C838.507 1035.09 864.573 1046.7 897.547 1044.5C899.117 1044.5 900.69 1044.5 902.26 1044.19C905.4 1044.19 908.539 1043.25 911.994 1042.93C911.994 1066.48 893.152 1082.18 863.317 1092.85C874.31 1101.64 885.299 1109.18 895.663 1115.46C896.606 1116.08 897.547 1116.71 898.491 1117.03C920.473 1130.21 940.885 1138.06 959.73 1139.63C966.009 1161.29 946.538 1174.79 920.787 1186.41C919.217 1186.72 917.962 1187.35 916.704 1187.66C897.547 1193.31 879.02 1199.28 861.118 1204.93C852.013 1207.76 842.905 1210.9 833.797 1213.72C796.739 1225.96 762.195 1238.52 730.791 1251.39C700.015 1263.95 678.348 1281.22 663.586 1302.57C659.818 1308.22 656.363 1314.18 653.538 1320.15C642.86 1342.44 637.835 1367.87 636.58 1395.5H680.544C682.114 1353.74 695.305 1285.93 761.254 1275.57C762.824 1275.57 764.08 1274.94 765.65 1274.94C793.6 1327.37 823.749 1369.44 858.922 1390.16C858.922 1390.16 858.922 1390.16 859.234 1390.16L914.819 1387.33C856.094 1351.86 805.533 1312.61 787.946 1258.3C832.227 1239.46 877.764 1225.02 924.556 1218.43C925.182 1218.43 925.812 1218.43 926.441 1218.43C973.547 1197.71 1006.21 1164.12 1015.63 1108.86C1044.83 1124.87 1075.92 1138.69 1117.69 1139.32C1159.46 1138.69 1190.55 1124.87 1219.76 1108.86C1229.18 1163.8 1261.84 1197.71 1308.94 1218.43C1356.68 1224.71 1402.53 1239.46 1447.44 1258.3C1429.85 1312.61 1378.97 1351.86 1320.56 1387.33L1376.15 1390.16C1411.63 1369.44 1441.78 1327.06 1469.73 1274.63C1539.45 1282.79 1552.95 1352.8 1554.84 1395.18H1598.81C1598.81 1391.73 1598.49 1388.59 1598.18 1385.45M1118 1103.21C990.82 1112.63 933.035 963.19 933.035 963.19C889.068 971.04 871.482 895.692 871.482 895.692C836.937 800.252 888.442 757.556 888.442 757.556C917.333 758.811 927.382 790.521 932.72 830.706V731.184C936.175 704.498 1019.08 698.849 1019.08 698.849C1012.49 648.929 1069.96 610.316 1069.96 610.316C1072.78 639.198 1052.37 682.522 1052.37 682.522H1183.01C1183.01 682.522 1162.6 639.198 1165.43 610.316C1165.43 610.316 1222.9 648.929 1216.3 698.849C1216.3 698.849 1255.24 701.673 1280.68 712.033C1282.25 712.662 1283.82 713.288 1285.08 713.917C1294.5 718.311 1301.72 724.277 1302.66 731.499V831.021C1307.69 793.031 1317.11 762.265 1342.55 758.182C1343.8 758.182 1345.37 757.871 1346.94 757.871C1346.94 757.871 1398.76 800.566 1363.9 896.006C1363.9 896.006 1347.26 966.958 1306.43 963.819C1305.8 963.819 1305.49 963.819 1304.86 963.819C1303.92 963.819 1303.29 963.819 1302.35 963.819C1302.35 963.819 1302.35 963.819 1302.35 964.448C1302.35 964.448 1301.72 966.017 1301.09 967.901C1291.04 991.132 1232.94 1112.63 1118 1104.15" fill="black" fill-opacity="0.03"/>
<path d="M840.058 1396.12C840.058 1396.12 837.233 1396.43 835.663 1396.75H692.146C694.028 1348.09 712.244 1311.04 753.697 1290.63C754.953 1290.01 756.211 1289.38 757.466 1288.75C776.623 1328.94 802.688 1365.67 840.058 1396.12Z" fill="black" fill-opacity="0.03"/>
<path d="M1540.7 1396.75H1397.18C1397.18 1396.75 1394.35 1396.43 1392.78 1396.12C1430.15 1365.67 1456.22 1328.94 1475.38 1288.75C1519.65 1308.84 1538.81 1346.52 1540.7 1396.75Z" fill="black" fill-opacity="0.03"/>
<path d="M1111.38 0C501.823 0 5.95117 495.724 5.95117 1105.1C5.95117 1206.18 19.455 1303.82 44.8924 1396.75H160.46C132.196 1304.45 116.808 1206.5 116.808 1105.1C116.808 556.942 563.062 110.823 1111.38 110.823C1659.7 110.823 2105.95 556.942 2105.95 1105.1C2105.95 1206.5 2090.56 1304.45 2062.3 1396.75H2177.87C2203.3 1303.82 2216.81 1205.87 2216.81 1105.1C2216.81 495.724 1720.93 0 1111.38 0Z" fill="black" fill-opacity="0.03"/>
<path d="M307.736 1645.09C307.736 1645.09 307.736 1646.97 306.48 1646.97H256.862C256.862 1646.97 255.292 1646.35 255.606 1645.09L280.729 1559.38C280.729 1559.38 281.044 1558.44 281.67 1558.44C281.985 1558.44 282.299 1558.76 282.614 1559.38L307.736 1645.09Z" fill="black" fill-opacity="0.03"/>
<path d="M1204.66 1645.09L1179.54 1559.38C1179.54 1559.38 1178.91 1558.12 1178.6 1558.44C1177.97 1558.44 1177.66 1558.75 1177.66 1559.38L1152.53 1645.09C1152.53 1645.09 1152.85 1646.97 1154.1 1646.97H1203.41C1203.41 1646.97 1205.29 1646.34 1204.66 1645.09ZM1204.66 1645.09L1179.54 1559.38C1179.54 1559.38 1178.91 1558.12 1178.6 1558.44C1177.97 1558.44 1177.66 1558.75 1177.66 1559.38L1152.53 1645.09C1152.53 1645.09 1152.85 1646.97 1154.1 1646.97H1203.41C1203.41 1646.97 1205.29 1646.34 1204.66 1645.09ZM1204.66 1645.09L1179.54 1559.38C1179.54 1559.38 1178.91 1558.12 1178.6 1558.44C1177.97 1558.44 1177.66 1558.75 1177.66 1559.38L1152.53 1645.09C1152.53 1645.09 1152.85 1646.97 1154.1 1646.97H1203.41C1203.41 1646.97 1205.29 1646.34 1204.66 1645.09ZM1672.27 1559.38C1672.27 1559.38 1672.27 1558.12 1671.33 1558.44C1671.02 1558.44 1670.7 1558.75 1670.39 1559.38L1645.58 1645.09C1645.58 1645.09 1645.58 1646.97 1646.84 1646.97H1696.45C1696.45 1646.97 1698.02 1646.34 1697.71 1645.09L1672.27 1559.38ZM1672.27 1559.38C1672.27 1559.38 1672.27 1558.12 1671.33 1558.44C1671.02 1558.44 1670.7 1558.75 1670.39 1559.38L1645.58 1645.09C1645.58 1645.09 1645.58 1646.97 1646.84 1646.97H1696.45C1696.45 1646.97 1698.02 1646.34 1697.71 1645.09L1672.27 1559.38ZM1204.66 1645.09L1179.54 1559.38C1179.54 1559.38 1178.91 1558.12 1178.6 1558.44C1177.97 1558.44 1177.66 1558.75 1177.66 1559.38L1152.53 1645.09C1152.53 1645.09 1152.85 1646.97 1154.1 1646.97H1203.41C1203.41 1646.97 1205.29 1646.34 1204.66 1645.09ZM2223.42 1415.28H-0.00195312L95.4668 1607.41L-0.00195312 1799.55H2223.42L2127.95 1607.41L2223.42 1415.28ZM385.642 1723.57H334.766C332.255 1723.57 330.685 1722.63 330.056 1720.43L321.578 1690.61C321.578 1690.61 320.634 1689.35 319.693 1689.35H244.009C244.009 1689.35 242.753 1689.98 242.439 1690.61L233.645 1720.43C233.017 1722.63 231.447 1723.57 229.249 1723.57H178.374C176.804 1723.57 175.862 1723.26 175.234 1722.63C174.606 1721.69 174.606 1720.43 174.92 1718.86L245.893 1494.39C246.835 1492.19 248.091 1491.25 250.29 1491.25H313.099C315.295 1491.25 316.868 1492.19 317.494 1494.39L389.096 1718.86C389.096 1718.86 389.411 1720.12 389.411 1720.75C389.411 1722.63 388.155 1723.57 385.642 1723.57ZM580.348 1719.81C580.348 1719.81 580.034 1721.69 579.093 1722.63C578.464 1723.26 577.523 1723.57 576.265 1723.57H417.675C417.675 1723.57 415.476 1723.26 414.847 1722.63C413.906 1721.69 413.592 1720.75 413.592 1719.81V1495.02C413.592 1495.02 413.906 1493.14 414.847 1492.19C415.476 1491.57 416.417 1491.25 417.675 1491.25H464.779C464.779 1491.25 466.664 1491.25 467.607 1492.19C468.234 1493.14 468.863 1494.08 468.863 1495.02V1674.91C468.863 1674.91 468.863 1676.48 470.433 1676.48H576.265C576.265 1676.48 578.464 1676.8 579.093 1677.74C580.034 1678.37 580.348 1679.31 580.348 1680.56V1719.81ZM844.772 1566.91C844.772 1566.91 844.458 1568.8 843.829 1569.74C842.888 1570.37 841.944 1570.68 841.003 1570.68H793.582C793.582 1570.68 791.698 1570.37 790.757 1569.74C790.128 1568.8 789.813 1567.85 789.813 1566.91C789.813 1558.12 786.673 1550.9 780.708 1544.62C774.426 1538.66 766.261 1535.52 755.898 1535.52C745.535 1535.52 737.368 1538.97 731.402 1545.57C725.123 1552.16 721.98 1560.95 721.98 1571.62V1642.89C721.98 1653.56 725.435 1662.35 732.343 1668.95C739.252 1675.54 747.734 1678.68 758.097 1678.68C767.831 1678.68 775.681 1676.17 781.649 1671.14C787.617 1665.81 790.757 1658.59 790.757 1649.17V1640.06C790.757 1640.06 790.128 1638.18 789.187 1638.18H755.898C755.898 1638.18 753.699 1637.87 753.07 1637.24C752.129 1636.3 751.815 1635.35 751.815 1634.41V1597.68C751.815 1597.68 752.129 1595.8 753.07 1594.86C753.699 1594.23 754.643 1593.6 755.898 1593.6H841.003C841.003 1593.6 842.888 1594.23 843.829 1594.86C844.458 1595.8 844.772 1596.74 844.772 1597.68V1642.89C844.772 1659.53 841.318 1674.28 833.78 1686.84C826.242 1699.4 815.879 1709.13 802.376 1716.04C789.187 1722.95 773.485 1726.4 755.898 1726.4C738.311 1726.4 722.609 1722.95 709.106 1715.72C695.603 1708.5 685.239 1698.77 678.016 1685.9C670.478 1673.03 666.709 1657.96 666.709 1641.32V1573.19C666.709 1556.24 670.478 1541.48 678.016 1528.93C685.239 1516.05 695.603 1506.32 709.106 1499.1C722.609 1491.88 737.997 1488.43 755.898 1488.43C773.799 1488.43 788.872 1491.88 802.376 1498.47C815.879 1505.38 826.242 1514.48 833.78 1526.41C841.318 1538.03 844.772 1550.9 844.772 1565.34V1566.91ZM1049.53 1719.81C1049.53 1719.81 1049.21 1721.69 1048.58 1722.63C1047.64 1723.26 1046.7 1723.57 1045.76 1723.57H998.337C998.337 1723.57 996.453 1723.26 995.512 1722.63C994.883 1721.69 994.569 1720.75 994.569 1719.81V1631.27C994.569 1631.27 993.942 1629.7 992.687 1629.7H930.504C930.504 1629.7 928.934 1630.33 928.934 1631.27V1719.81C928.934 1719.81 928.62 1721.69 927.679 1722.63C927.05 1723.26 926.109 1723.57 924.853 1723.57H877.747C877.747 1723.57 875.862 1723.26 874.919 1722.63C874.292 1721.69 873.663 1720.75 873.663 1719.81V1495.02C873.663 1495.02 874.292 1493.14 874.919 1492.19C875.862 1491.57 876.803 1491.25 877.747 1491.25H924.853C924.853 1491.25 927.05 1491.25 927.679 1492.19C928.62 1493.14 928.934 1494.08 928.934 1495.02V1580.73C928.934 1580.73 929.563 1582.61 930.504 1582.61H992.687C992.687 1582.61 994.569 1581.98 994.569 1580.73V1495.02C994.569 1495.02 994.883 1493.14 995.512 1492.19C996.453 1491.57 997.397 1491.25 998.337 1491.25H1045.76C1045.76 1491.25 1047.64 1491.25 1048.58 1492.19C1049.21 1493.14 1049.53 1494.08 1049.53 1495.02V1719.81ZM1282.55 1723.57H1231.67C1229.16 1723.57 1227.59 1722.63 1226.96 1720.43L1218.48 1690.61C1218.48 1690.61 1217.54 1689.35 1216.91 1689.35H1140.91C1140.91 1689.35 1139.66 1689.98 1139.34 1690.61L1130.55 1720.43C1129.92 1722.63 1128.35 1723.57 1126.15 1723.57H1075.28C1073.71 1723.57 1072.77 1723.26 1072.14 1722.63C1071.51 1721.69 1071.51 1720.43 1071.82 1718.86L1143.11 1494.39C1143.74 1492.19 1145 1491.25 1147.2 1491.25H1210C1212.2 1491.25 1213.77 1492.19 1214.4 1494.39L1286 1718.86C1286 1718.86 1286.31 1720.12 1286.31 1720.75C1286.31 1722.63 1285.06 1723.57 1282.55 1723.57ZM1522.79 1723.57H1475.37C1472.86 1723.57 1471.6 1722.32 1470.97 1720.12L1442.08 1591.72C1442.08 1591.72 1441.45 1590.46 1441.14 1590.46C1440.51 1590.46 1440.2 1590.77 1440.2 1591.72L1414.13 1720.12C1413.82 1722.32 1412.25 1723.57 1409.73 1723.57H1365.45C1362.94 1723.57 1361.37 1722.63 1360.74 1720.43L1298.88 1495.33V1494.08C1298.56 1492.19 1299.82 1491.25 1302.33 1491.25H1352.58C1354.78 1491.25 1356.35 1492.19 1356.97 1494.39L1385.87 1615.26C1385.87 1615.26 1386.49 1616.83 1386.81 1616.83C1387.44 1616.83 1387.75 1616.2 1388.06 1615.26L1413.82 1494.7C1414.13 1492.19 1415.7 1491.25 1418.21 1491.25H1464.38C1466.58 1491.25 1468.15 1492.19 1468.77 1494.39L1497.67 1615.26C1497.67 1615.26 1497.98 1616.83 1498.61 1616.83C1498.92 1616.83 1499.24 1616.2 1499.55 1615.26L1526.56 1494.7C1526.87 1492.19 1528.44 1491.25 1530.95 1491.25H1579.94C1583.09 1491.25 1584.34 1492.51 1583.71 1495.33L1527.5 1720.43C1526.87 1722.63 1525.3 1723.57 1522.79 1723.57ZM1775.28 1723.57H1724.72C1722.21 1723.57 1720.63 1722.63 1720.01 1720.43L1711.21 1690.61C1711.21 1690.61 1710.27 1689.35 1709.64 1689.35H1633.96C1633.96 1689.35 1632.7 1689.98 1632.07 1690.61L1623.6 1720.43C1622.97 1722.63 1621.4 1723.57 1618.89 1723.57H1568.01C1568.01 1723.57 1565.81 1723.26 1565.18 1722.63C1564.24 1721.69 1564.24 1720.43 1564.56 1718.86L1635.84 1494.39C1636.47 1492.19 1638.04 1491.25 1640.24 1491.25H1703.05C1705.25 1491.25 1706.5 1492.19 1707.13 1494.39L1778.73 1718.86C1778.73 1718.86 1779.05 1720.12 1779.05 1720.75C1779.05 1722.63 1777.79 1723.57 1775.28 1723.57ZM1970.3 1719.81C1970.3 1719.81 1969.67 1721.69 1969.04 1722.63C1968.1 1723.26 1967.16 1723.57 1966.22 1723.57H1807.31C1807.31 1723.57 1805.11 1723.26 1804.48 1722.63C1803.86 1721.69 1803.23 1720.75 1803.23 1719.81V1495.02C1803.23 1495.02 1803.86 1493.14 1804.48 1492.19C1805.11 1491.57 1806.05 1491.25 1807.31 1491.25H1854.42C1854.42 1491.25 1856.61 1491.25 1857.24 1492.19C1858.18 1493.14 1858.5 1494.08 1858.5 1495.02V1674.91C1858.5 1674.91 1859.13 1676.48 1860.07 1676.48H1966.22C1966.22 1676.48 1968.1 1676.8 1969.04 1677.74C1969.67 1678.37 1970.3 1679.31 1970.3 1680.56V1719.81ZM2048.81 1719.81C2048.81 1719.81 2048.5 1721.69 2047.87 1722.63C2046.93 1723.26 2045.98 1723.57 2045.04 1723.57H1997.62C1997.62 1723.57 1995.74 1723.26 1994.8 1722.63C1994.17 1721.69 1993.85 1720.75 1993.85 1719.81V1495.02C1993.85 1495.02 1993.85 1493.14 1994.8 1492.19C1995.74 1491.57 1996.68 1491.25 1997.62 1491.25H2045.04C2045.04 1491.25 2046.93 1491.25 2047.87 1492.19C2048.5 1493.14 2048.81 1494.08 2048.81 1495.02V1719.81ZM1671.33 1558.44C1671.33 1558.44 1670.7 1558.75 1670.39 1559.38L1645.58 1645.09C1645.58 1645.09 1645.58 1646.97 1646.84 1646.97H1696.45C1696.45 1646.97 1698.02 1646.34 1697.71 1645.09L1672.27 1559.38C1672.27 1559.38 1672.27 1558.12 1671.33 1558.44ZM1179.54 1559.38C1179.54 1559.38 1178.91 1558.12 1178.6 1558.44C1177.97 1558.44 1177.66 1558.75 1177.66 1559.38L1152.53 1645.09C1152.53 1645.09 1152.85 1646.97 1154.1 1646.97H1203.41C1203.41 1646.97 1205.29 1646.34 1204.66 1645.09L1179.54 1559.38ZM1204.66 1645.09L1179.54 1559.38C1179.54 1559.38 1178.91 1558.12 1178.6 1558.44C1177.97 1558.44 1177.66 1558.75 1177.66 1559.38L1152.53 1645.09C1152.53 1645.09 1152.85 1646.97 1154.1 1646.97H1203.41C1203.41 1646.97 1205.29 1646.34 1204.66 1645.09ZM1672.27 1559.38C1672.27 1559.38 1672.27 1558.12 1671.33 1558.44C1671.02 1558.44 1670.7 1558.75 1670.39 1559.38L1645.58 1645.09C1645.58 1645.09 1645.58 1646.97 1646.84 1646.97H1696.45C1696.45 1646.97 1698.02 1646.34 1697.71 1645.09L1672.27 1559.38ZM1672.27 1559.38C1672.27 1559.38 1672.27 1558.12 1671.33 1558.44C1671.02 1558.44 1670.7 1558.75 1670.39 1559.38L1645.58 1645.09C1645.58 1645.09 1645.58 1646.97 1646.84 1646.97H1696.45C1696.45 1646.97 1698.02 1646.34 1697.71 1645.09L1672.27 1559.38ZM1204.66 1645.09L1179.54 1559.38C1179.54 1559.38 1178.91 1558.12 1178.6 1558.44C1177.97 1558.44 1177.66 1558.75 1177.66 1559.38L1152.53 1645.09C1152.53 1645.09 1152.85 1646.97 1154.1 1646.97H1203.41C1203.41 1646.97 1205.29 1646.34 1204.66 1645.09ZM1204.66 1645.09L1179.54 1559.38C1179.54 1559.38 1178.91 1558.12 1178.6 1558.44C1177.97 1558.44 1177.66 1558.75 1177.66 1559.38L1152.53 1645.09C1152.53 1645.09 1152.85 1646.97 1154.1 1646.97H1203.41C1203.41 1646.97 1205.29 1646.34 1204.66 1645.09ZM1204.66 1645.09L1179.54 1559.38C1179.54 1559.38 1178.91 1558.12 1178.6 1558.44C1177.97 1558.44 1177.66 1558.75 1177.66 1559.38L1152.53 1645.09C1152.53 1645.09 1152.85 1646.97 1154.1 1646.97H1203.41C1203.41 1646.97 1205.29 1646.34 1204.66 1645.09Z" fill="black" fill-opacity="0.03"/>
<path d="M1107.95 159.801C611.132 159.801 206.646 563.851 206.646 1060.83C206.646 1175.11 228.001 1284.36 266.943 1385.14C268.513 1389.22 270.083 1392.99 271.654 1397.07H310.908C302.115 1376.66 294.265 1355.63 287.356 1334.28C258.464 1248.26 243.075 1156.27 243.075 1060.83C243.075 583.945 630.918 196.219 1107.95 196.219C1584.98 196.219 1972.82 583.945 1972.82 1060.83C1972.82 1154.07 1958.06 1243.86 1930.42 1328.31C1922.89 1351.55 1914.09 1374.46 1904.67 1397.07H1943.93C1947.7 1387.96 1951.15 1378.86 1954.61 1369.75C1989.78 1273.37 2008.93 1169.46 2008.93 1061.14C2008.93 564.479 1604.76 160.115 1107.95 160.115" fill="black" fill-opacity="0.03"/>
<path d="M11.2832 2002.99V1839.11C11.2832 1836.28 12.8534 1835.02 15.3658 1835.02H41.7454C43.9436 1835.02 45.5138 1835.65 46.77 1837.85L82.5709 1895.61C82.5709 1895.61 84.1411 1896.56 84.4551 1895.61L120.57 1837.85C121.826 1835.97 123.396 1835.02 125.595 1835.02H151.974C154.801 1835.02 156.057 1836.59 156.057 1839.11V2002.99C156.057 2005.81 154.487 2007.07 151.974 2007.07H125.595C122.768 2007.07 121.512 2005.5 121.512 2002.99V1896.24C121.512 1896.24 120.57 1894.36 119.628 1895.61L94.8184 1936.11C93.5621 1938 91.9919 1938.94 89.7937 1938.94H77.2319C75.0337 1938.94 73.4635 1938.31 72.2073 1936.11L47.712 1895.61C47.712 1895.61 46.1418 1894.67 46.1418 1896.24V2002.99C46.1418 2005.81 44.5715 2007.07 42.0594 2007.07H15.3658C12.5394 2007.07 11.2832 2005.5 11.2832 2002.99Z" fill="black" fill-opacity="0.03"/>
<path d="M292.348 2003.61L285.44 1980.69C285.44 1980.69 284.811 1979.44 283.867 1979.44H223.572C223.572 1979.44 222.316 1979.44 222.002 1980.69L215.093 2003.61C214.465 2005.81 212.895 2007.06 210.382 2007.06H181.804C178.978 2007.06 177.408 2005.18 178.35 2002.36L230.795 1838.16C231.423 1835.96 232.993 1834.71 235.506 1834.71H271.622C274.133 1834.71 275.703 1835.96 276.332 1838.16L328.777 2002.36C329.718 2005.18 328.148 2007.06 325.323 2007.06H296.744C294.23 2007.06 292.66 2005.81 292.034 2003.61H292.348ZM232.051 1952.75H275.703C275.703 1952.75 277.273 1952.12 276.958 1951.18L254.662 1876.15C254.662 1876.15 253.092 1874.89 252.778 1876.15L230.795 1951.18C230.795 1951.18 230.795 1952.75 232.051 1952.75Z" fill="black" fill-opacity="0.03"/>
<path d="M351.078 2002.99V1839.11C351.078 1836.28 352.648 1835.02 355.159 1835.02H380.598C382.797 1835.02 384.367 1835.65 385.622 1837.85L447.173 1940.2C447.173 1940.2 449.058 1941.14 449.058 1939.57V1839.11C449.058 1836.28 450.628 1835.02 453.141 1835.02H478.892C481.72 1835.02 482.976 1836.59 482.976 1839.11V2002.99C482.976 2005.81 481.406 2007.07 478.892 2007.07H453.77C451.571 2007.07 450.001 2006.13 448.746 2004.24L386.878 1900.95C386.878 1900.95 384.993 1900.01 384.993 1901.58V2003.3C384.993 2006.13 383.738 2007.38 381.224 2007.38H355.159C352.334 2007.38 351.078 2005.81 351.078 2003.3V2002.99Z" fill="black" fill-opacity="0.03"/>
<path d="M637.479 1888.08C637.479 1919.47 615.182 1940.19 581.579 1940.19H546.72C546.72 1940.19 545.15 1940.82 545.15 1941.76V2002.98C545.15 2005.81 543.58 2007.06 541.066 2007.06H514.686C511.861 2007.06 510.605 2005.49 510.605 2002.98V1838.79C510.605 1835.96 512.175 1834.71 514.686 1834.71H582.834C615.494 1834.71 637.164 1856.06 637.164 1888.08H637.479ZM602.934 1888.71C602.934 1874.27 592.883 1864.53 577.81 1864.53H546.72C546.72 1864.53 545.15 1865.16 545.15 1866.1V1910.99C545.15 1910.99 545.779 1912.57 546.72 1912.57H577.81C592.883 1912.57 602.934 1902.83 602.934 1889.02V1888.71Z" fill="black" fill-opacity="0.03"/>
<path d="M655.393 1947.41V1894.67C655.393 1857.63 681.144 1832.82 720.086 1832.82C759.026 1832.82 785.091 1857.63 785.091 1894.67V1947.41C785.091 1984.78 759.34 2009.89 720.086 2009.89C680.829 2009.89 655.393 1984.78 655.393 1947.41ZM750.547 1948.67V1894.36C750.547 1875.21 738.614 1862.65 720.398 1862.65C702.185 1862.65 690.251 1875.21 690.251 1894.36V1948.67C690.251 1967.51 702.185 1980.07 720.398 1980.07C738.614 1980.07 750.547 1967.51 750.547 1948.67Z" fill="black" fill-opacity="0.03"/>
<path d="M837.849 2003.61L794.512 1839.73C793.885 1836.91 795.141 1835.02 798.281 1835.02H826.231C828.744 1835.02 830.314 1836.28 830.629 1838.79L853.866 1937.06C853.866 1937.06 855.751 1938.31 855.751 1937.06L878.047 1838.79C878.676 1836.28 879.932 1835.02 882.445 1835.02H910.395C912.906 1835.02 914.476 1836.28 915.105 1838.79L939.286 1937.06C939.286 1937.06 940.856 1938.31 940.856 1937.06L963.153 1838.79C963.782 1836.28 965.037 1835.02 967.551 1835.02H994.243C997.071 1835.02 998.326 1836.91 997.697 1839.73L958.128 2003.61C957.502 2006.13 955.929 2007.38 953.419 2007.38H926.409C923.898 2007.38 922.329 2006.13 921.7 2003.61L897.204 1899.07C897.204 1899.07 895.634 1897.5 895.319 1899.07L872.397 2003.61C871.767 2006.13 870.512 2007.38 867.999 2007.38H842.877C840.363 2007.38 838.793 2005.81 838.164 2003.61H837.849Z" fill="black" fill-opacity="0.03"/>
<path d="M1131.48 1864.53H1052.03C1052.03 1864.53 1050.46 1865.16 1050.46 1866.1V1903.78C1050.46 1903.78 1051.09 1905.35 1052.03 1905.35H1103.53C1106.36 1905.35 1107.62 1906.92 1107.62 1909.43V1930.77C1107.62 1933.6 1106.05 1934.86 1103.53 1934.86H1052.03C1052.03 1934.86 1050.46 1935.48 1050.46 1936.43V1975.67C1050.46 1975.67 1051.09 1977.24 1052.03 1977.24H1131.48C1134.31 1977.24 1135.57 1978.81 1135.57 1981.32V2002.67C1135.57 2005.49 1134 2006.75 1131.48 2006.75H1020.31C1017.49 2006.75 1016.23 2005.18 1016.23 2002.67V1838.79C1016.23 1835.96 1017.8 1834.71 1020.31 1834.71H1131.48C1134.31 1834.71 1135.57 1836.28 1135.57 1838.79V1860.14C1135.57 1862.96 1134 1864.22 1131.48 1864.22V1864.53Z" fill="black" fill-opacity="0.03"/>
<path d="M1250.49 2003.92L1220.34 1937.05C1220.34 1937.05 1219.4 1935.8 1218.77 1935.8H1196.47C1196.47 1935.8 1194.9 1936.43 1194.9 1937.37V2002.98C1194.9 2005.81 1193.33 2007.06 1190.82 2007.06H1164.44C1161.61 2007.06 1160.36 2005.49 1160.36 2002.98V1838.79C1160.36 1835.96 1161.93 1834.71 1164.44 1834.71H1233.53C1265.25 1834.71 1286.29 1855.74 1286.29 1886.51C1286.29 1908.8 1274.36 1925.75 1254.89 1932.34C1253.94 1932.34 1253.63 1933.6 1254.26 1934.23L1286.92 2002.04C1288.49 2004.87 1286.92 2007.06 1284.09 2007.06H1256.14C1253.94 2007.06 1252.06 2005.81 1251.12 2003.92H1250.49ZM1194.59 1866.1V1907.54C1194.59 1907.54 1195.22 1909.11 1196.16 1909.11H1228.19C1242.01 1909.11 1251.74 1900.32 1251.74 1887.14C1251.74 1873.95 1242.01 1864.85 1228.19 1864.85H1196.16C1196.16 1864.85 1194.59 1865.47 1194.59 1866.42V1866.1Z" fill="black" fill-opacity="0.03"/>
<path d="M1354.46 1957.78V1953.7C1354.46 1950.87 1356.03 1949.62 1358.54 1949.62H1384.29C1387.12 1949.62 1388.37 1950.87 1388.37 1952.76V1956.21C1388.37 1968.77 1400.93 1979.76 1421.03 1979.76C1439.88 1979.76 1446.79 1970.34 1446.79 1960.61C1446.79 1948.05 1434.22 1943.65 1410.67 1934.86C1384.92 1926.07 1355.4 1914.45 1355.4 1881.8C1355.4 1851.66 1380.21 1833.14 1415.38 1833.14C1453.38 1833.14 1480.07 1854.18 1480.07 1886.2V1888.71C1480.07 1891.54 1478.5 1892.79 1475.99 1892.79H1450.24C1447.41 1892.79 1446.16 1891.85 1446.16 1890.28V1887.77C1446.16 1874.9 1435.16 1862.97 1414.44 1862.97C1398.74 1862.97 1389.94 1869.87 1389.94 1881.49C1389.94 1894.36 1400.93 1898.76 1428.26 1908.18C1450.55 1916.34 1481.64 1925.76 1481.64 1959.35C1481.64 1989.49 1457.15 2009.27 1418.52 2009.27C1379.89 2009.27 1354.46 1989.17 1354.46 1957.78Z" fill="black" fill-opacity="0.03"/>
<path d="M1504.53 1949.93V1838.79C1504.53 1835.96 1506.1 1834.71 1508.61 1834.71H1534.99C1537.82 1834.71 1539.07 1836.28 1539.07 1838.79V1950.24C1539.07 1967.51 1550.69 1979.44 1568.28 1979.44C1585.86 1979.44 1597.49 1967.51 1597.49 1950.24V1838.79C1597.49 1835.96 1599.06 1834.71 1601.57 1834.71H1627.95C1630.77 1834.71 1632.03 1836.28 1632.03 1838.79V1949.93C1632.03 1985.4 1606.28 2008.95 1568.28 2008.95C1530.28 2008.95 1504.53 1985.4 1504.53 1949.93Z" fill="black" fill-opacity="0.03"/>
<path d="M1786.25 1888.08C1786.25 1919.47 1763.95 1940.19 1730.35 1940.19H1695.49C1695.49 1940.19 1693.92 1940.82 1693.92 1941.76V2002.98C1693.92 2005.81 1692.35 2007.06 1689.84 2007.06H1663.46C1660.63 2007.06 1659.38 2005.49 1659.38 2002.98V1838.79C1659.38 1835.96 1660.94 1834.71 1663.46 1834.71H1731.6C1764.26 1834.71 1785.93 1856.06 1785.93 1888.08H1786.25ZM1751.7 1888.71C1751.7 1874.27 1741.65 1864.53 1726.58 1864.53H1695.49C1695.49 1864.53 1693.92 1865.16 1693.92 1866.1V1910.99C1693.92 1910.99 1694.55 1912.57 1695.49 1912.57H1726.58C1741.65 1912.57 1751.7 1902.83 1751.7 1889.02V1888.71Z" fill="black" fill-opacity="0.03"/>
<path d="M1933.22 1888.08C1933.22 1919.47 1910.93 1940.19 1877.32 1940.19H1842.47C1842.47 1940.19 1840.9 1940.82 1840.9 1941.76V2002.98C1840.9 2005.81 1839.33 2007.06 1836.81 2007.06H1810.43C1807.61 2007.06 1806.35 2005.49 1806.35 2002.98V1838.79C1806.35 1835.96 1807.92 1834.71 1810.43 1834.71H1878.58C1911.24 1834.71 1932.91 1856.06 1932.91 1888.08H1933.22ZM1898.68 1888.71C1898.68 1874.27 1888.63 1864.53 1873.56 1864.53H1842.47C1842.47 1864.53 1840.9 1865.16 1840.9 1866.1V1910.99C1840.9 1910.99 1841.53 1912.57 1842.47 1912.57H1873.56C1888.63 1912.57 1898.68 1902.83 1898.68 1889.02V1888.71Z" fill="black" fill-opacity="0.03"/>
<path d="M1954.59 2002.99V1839.11C1954.59 1836.28 1956.16 1835.02 1958.67 1835.02H1985.05C1987.88 1835.02 1989.14 1836.59 1989.14 1839.11V1975.99C1989.14 1975.99 1989.76 1977.56 1990.71 1977.56H2069.84C2072.67 1977.56 2073.93 1979.13 2073.93 1981.64V2002.99C2073.93 2005.81 2072.36 2007.07 2069.84 2007.07H1958.67C1955.85 2007.07 1954.59 2005.5 1954.59 2002.99Z" fill="black" fill-opacity="0.03"/>
<path d="M2126.35 2002.67V1941.76C2126.35 1941.76 2126.35 1940.19 2125.72 1939.88L2076.1 1839.73C2074.53 1836.9 2076.1 1834.71 2078.93 1834.71H2107.51C2109.7 1834.71 2111.59 1835.96 2112.53 1837.85L2142.68 1901.89C2142.68 1901.89 2144.25 1902.83 2144.56 1901.89L2174.71 1837.85C2175.65 1835.96 2177.54 1834.71 2179.74 1834.71H2208.63C2211.77 1834.71 2213.34 1836.9 2211.77 1839.73L2161.52 1939.88C2161.52 1939.88 2160.89 1941.45 2160.89 1941.76V2002.67C2160.89 2005.49 2159.32 2006.75 2156.81 2006.75H2130.74C2127.92 2006.75 2126.66 2005.18 2126.66 2002.67H2126.35Z" fill="black" fill-opacity="0.03"/>
</g>
<defs>
<clipPath id="clip0_3210_5442">
<rect width="2223.42" height="2033" fill="white" transform="translate(0.00390625)"/>
</clipPath>
</defs>
</svg>
