<svg width="71" height="71" viewBox="0 0 71 71" fill="none" xmlns="http://www.w3.org/2000/svg">
<path d="M54.6025 30.4096C54.6025 44.4454 35.8881 58.4811 35.8881 58.4811C35.8881 58.4811 17.1738 44.4454 17.1738 30.4096C17.1738 25.4463 19.1455 20.6862 22.6551 17.1766C26.1647 13.667 30.9248 11.6953 35.8881 11.6953C40.8515 11.6953 45.6116 13.667 49.1212 17.1766C52.6308 20.6862 54.6025 25.4463 54.6025 30.4096Z" stroke="#F2F2F2" stroke-width="4.67858" stroke-linecap="round" stroke-linejoin="round"/>
<path d="M35.889 37.4283C39.7648 37.4283 42.9068 34.2863 42.9068 30.4104C42.9068 26.5346 39.7648 23.3926 35.889 23.3926C32.0131 23.3926 28.8711 26.5346 28.8711 30.4104C28.8711 34.2863 32.0131 37.4283 35.889 37.4283Z" stroke="#F2F2F2" stroke-width="4.67858" stroke-linecap="round" stroke-linejoin="round"/>
</svg>
