<svg width="71" height="71" viewBox="0 0 71 71" fill="none" xmlns="http://www.w3.org/2000/svg">
<path d="M45.4345 40.6114C44.9672 40.3778 41.93 38.976 41.4627 38.7423C40.9955 38.5087 40.5282 38.5087 40.061 38.976C39.5937 39.4433 38.6592 40.8451 38.1919 41.3124C37.9583 41.7796 37.491 41.7796 37.0237 41.546C35.3883 40.8451 33.7529 39.9105 32.3511 38.7423C31.1829 37.5742 30.0148 36.1723 29.0802 34.7705C28.8466 34.3032 29.0802 33.836 29.3139 33.6023C29.5475 33.3687 29.7811 32.9014 30.2484 32.6678C30.482 32.4342 30.7157 31.9669 30.7157 31.7332C30.9493 31.4996 30.9493 31.0323 30.7157 30.7987C30.482 30.5651 29.3139 27.7614 28.8466 26.5932C28.613 24.9578 28.1457 24.9578 27.6785 24.9578H26.5103C26.043 24.9578 25.3421 25.425 25.1085 25.6587C23.7067 27.0605 23.0058 28.696 23.0058 30.5651C23.2394 32.6678 23.9403 34.7705 25.3421 36.6396C27.9121 40.3778 31.1829 43.4151 35.1547 45.2842C36.3228 45.7515 37.2574 46.2187 38.4255 46.4524C39.5937 46.9196 40.7618 46.9196 42.1636 46.686C43.7991 46.4524 45.2009 45.2842 46.1354 43.8824C46.6026 42.9478 46.6026 42.0133 46.369 41.0787L45.4345 40.6114ZM51.2753 19.3505C42.1636 10.2386 27.4448 10.2386 18.3332 19.3505C10.857 26.8269 9.45516 38.2751 14.5951 47.3869L11.3242 59.3024L23.7067 56.0315C27.2112 57.9006 30.9493 58.8351 34.6874 58.8351C47.5372 58.8351 57.817 48.5551 57.817 35.7051C58.0506 29.6305 55.4807 23.7896 51.2753 19.3505ZM44.9672 52.0597C41.93 53.9287 38.4255 55.0969 34.6874 55.0969C31.1829 55.0969 27.9121 54.1624 24.8749 52.5269L24.174 52.0597L16.9314 53.9288L18.8004 46.9196L18.3332 46.2187C12.726 36.8733 15.5296 25.1914 24.6412 19.3505C33.7529 13.5096 45.4345 16.5468 51.0417 25.425C56.6488 34.5369 54.0789 46.4524 44.9672 52.0597Z" fill="#F2F2F2"/>
</svg>
