<svg width="397" height="363" viewBox="0 0 397 363" fill="none" xmlns="http://www.w3.org/2000/svg">
<path d="M349.393 245.864C349.281 245.415 349.169 244.967 349.001 244.518C348.104 241.827 346.589 239.361 344.683 237.175C334.253 225.067 311.656 219.853 311.656 219.853C289.282 217.275 287.264 199.897 287.264 199.897C297.974 191.321 302.404 179.212 302.404 179.212C318.384 172.598 314.123 149.559 314.123 149.559C311.712 146.98 307.001 121.923 307.001 121.923C284.74 77.9185 244.424 96.5293 237.526 100.117C237.302 100.229 237.078 100.341 236.966 100.453C236.685 100.621 236.517 100.733 236.517 100.733C231.695 108.133 229.284 117.494 228.387 127.472C228.667 127.584 228.947 127.696 229.172 127.809C230.854 128.593 232.143 129.659 232.312 130.948V143.953C233.433 139.188 235.452 135.769 239.377 135.601C239.377 135.601 239.377 135.601 239.433 135.656C239.657 135.656 239.937 135.601 240.218 135.601C240.218 135.601 249.47 143.224 243.246 160.265C243.246 160.265 240.274 172.934 232.985 172.373C232.76 172.373 232.536 172.373 232.256 172.373C232.256 172.373 232.031 172.373 231.919 172.373C231.919 172.598 231.975 172.766 232.031 172.99C233.041 178.091 234.106 182.8 235.059 186.78C235.283 187.677 235.508 188.574 235.676 189.471C236.742 193.955 237.639 197.375 238.031 199.337C238.031 199.505 238.031 199.673 238.087 199.785C238.087 200.121 238.199 200.402 238.199 200.626C238.536 206.232 234.779 210.716 233.769 211.781C233.601 211.949 233.545 212.061 233.545 212.061L236.91 212.846L240.218 213.575C242.91 210.716 244.367 207.129 244.984 203.036C258.947 210.324 271.395 208.81 282.89 202.196C284.124 211.669 289.226 217.162 296.235 220.75C296.852 230.672 291.862 238.52 284.797 245.639L284.628 245.807L284.18 247.657L283.787 249.395H349.449C349.449 247.265 349.449 245.864 349.449 245.864M244.367 195.469C244.031 195.244 243.694 195.076 243.358 194.852C240.05 193.507 237.639 191.769 236.517 189.415C236.125 188.574 235.9 187.733 235.9 186.724C235.9 186.612 235.9 186.5 235.9 186.388C242.573 187.565 247.732 185.883 251.769 181.791C251.769 181.791 251.825 181.735 251.881 181.679C251.545 181.679 251.265 181.735 250.984 181.791C247.732 182.015 245.377 180.95 244.143 178.372C242.741 175.4 242.854 170.3 244.928 162.508C248.517 152.586 248.854 141.598 247.395 129.939C247.227 128.874 247.115 127.809 246.947 126.743C246.947 126.687 246.947 126.575 246.947 126.519C246.498 123.436 245.881 120.353 245.208 117.214C245.377 117.214 245.545 117.27 245.657 117.326C259.395 120.353 272.068 120.97 282.946 117.214C290.404 115.644 295.226 120.745 296.908 133.919C298.815 145.298 298.31 155.893 292.871 164.918C296.292 165.647 299.151 161.499 300.721 146.868C303.581 140.87 306.385 140.814 309.132 150.175C310.758 160.546 308.404 169.347 298.479 175.176C285.75 198.776 269.32 210.604 244.48 195.413" fill="white"/>
<path d="M151.063 145.466C151.343 141.598 151.679 136.553 151.96 131.788L151.063 145.466ZM163.455 212.285V212.061V211.669L157.904 201.299L159.585 199.729L159.922 199.393L166.707 193.002L160.707 178.596L151.455 154.211L150.67 152.193L151.847 156.229L156.614 172.766V181.398L160.875 185.042L160.315 186.724L160.202 187.06C163.342 188.293 143.156 202.027 138.951 200.402V194.46H129.699V199.785C114.278 197.374 104.241 189.022 99.1383 175.232C99.1383 175.232 79.1203 163.909 92.0732 144.345C92.0732 144.345 99.3068 148.942 100.148 166.824C100.148 166.824 109.007 177.026 103.568 161.162C98.1289 145.354 97.8486 107.964 123.474 117.214C123.474 117.214 137.437 139.748 149.212 128.705L149.829 129.266L150.614 129.939L152.128 131.34C152.296 128.257 152.464 125.286 152.52 122.876C152.52 122.876 152.24 122.876 151.735 122.987C151.511 122.987 151.231 123.043 150.894 123.1C147.417 123.492 139.567 123.885 138.446 119.007V118.727L152.071 118.279H152.52C152.52 117.718 152.52 117.326 152.408 117.101C152.408 116.99 152.408 116.933 152.352 116.933C152.128 116.597 152.633 115.252 153.642 113.402C154.315 112.168 155.1 110.711 156.053 109.198C159.137 104.096 163.062 98.1543 163.791 97.0333C163.847 96.921 163.903 96.8654 163.903 96.8654C163.735 96.7531 163.623 96.5851 163.455 96.4728C151.623 85.9904 131.549 88.0643 131.437 89.0735C131.324 90.0826 113.157 95.4637 113.157 95.4637C92.1293 98.435 86.9703 116.765 87.1949 140.253C79.5686 159.537 83.2133 172.037 95.8863 179.156C98.2974 185.995 103.344 193.338 109.849 200.962C110.465 212.79 89.8301 220.862 64.0363 228.038C58.317 230.952 54.1113 234.372 51.4199 238.184C49.4572 240.987 48.2798 244.013 47.7751 247.265C47.663 247.937 47.6068 248.666 47.5508 249.395H120.502C120.783 241.771 123.194 229.326 135.698 227.869C135.698 227.869 135.698 227.925 135.754 227.981C136.035 227.981 136.259 227.869 136.54 227.869C141.474 237.231 146.913 244.742 153.193 248.442L162.333 247.993C151.847 241.659 142.819 234.652 139.624 224.954C147.53 221.591 155.66 219.012 164.015 217.891L163.511 212.285H163.455ZM152.688 215.368C151.511 215.817 150.165 216.378 148.651 216.938C139.062 220.806 124.203 227.365 118.259 232.858C116.914 234.091 116.072 235.269 115.792 236.334C115.792 236.334 115.736 236.222 115.624 235.997C114.447 233.867 107.886 221.815 108.615 216.77C108.615 216.77 114.615 209.371 114.615 205.335C120.839 210.884 127.231 214.864 133.96 215.033C142.651 212.285 148.819 208.586 153.081 204.158C153.922 207.689 155.156 210.996 157.399 213.631C157.399 213.631 155.604 214.304 152.688 215.425M134.577 230.56C127.175 234.204 123.923 240.818 123.586 249.507H148.371C148.371 249.507 148.932 249.451 149.212 249.395C142.651 244.013 138.054 237.623 134.633 230.56M152.464 118.615V119.849V122.987C152.464 121.754 152.464 120.689 152.464 119.792C152.464 119.4 152.464 119.007 152.464 118.671" fill="white"/>
<path d="M149.996 249.283C149.996 249.283 149.492 249.339 149.211 249.395H123.586C123.922 240.706 127.174 234.091 134.576 230.448C134.8 230.335 135.025 230.223 135.249 230.111C138.67 237.287 143.324 243.845 149.996 249.283Z" fill="#249D64"/>
<path d="M149.996 249.283C149.996 249.283 149.492 249.339 149.211 249.395H123.586C123.922 240.706 127.174 234.091 134.576 230.448C134.8 230.335 135.025 230.223 135.249 230.111C138.67 237.287 143.324 243.845 149.996 249.283Z" fill="#249D64"/>
<path d="M285.02 247.658C285.02 246.985 284.908 246.256 284.796 245.584C283.563 235.942 279.133 228.038 268.254 223.666C259.059 219.91 248.517 216.322 236.853 212.791C236.012 212.566 235.171 212.286 234.33 212.062C234.106 211.95 233.938 211.894 233.769 211.782C229.451 209.764 226.256 207.409 227.321 203.71C230.573 203.429 234.218 202.084 238.087 199.786C238.311 199.617 238.592 199.449 238.816 199.337C240.61 198.272 242.405 196.983 244.311 195.469C244.367 195.469 244.479 195.357 244.536 195.301C244.143 195.133 243.75 195.021 243.302 194.853C239.993 193.507 237.582 191.77 236.461 189.415C236.068 188.63 235.844 187.734 235.844 186.724C235.844 186.612 235.844 186.5 235.844 186.388C242.517 187.565 247.676 185.884 251.713 181.792C251.713 181.792 251.769 181.735 251.825 181.679C252.105 181.399 252.33 181.119 252.61 180.839C249.245 180.895 246.554 180.222 244.928 178.316C243.077 176.13 242.685 172.374 244.311 166.264C248.629 151.913 249.414 140.141 248.18 129.883C248.068 128.762 247.9 127.753 247.731 126.688C247.731 126.632 247.731 126.52 247.731 126.464C247.227 123.269 246.498 120.185 245.601 117.27C244.423 113.234 242.965 109.366 241.339 105.61C241.339 105.61 240.274 103.425 237.863 100.285C237.806 100.173 237.695 100.061 237.582 99.9491C232.143 93.054 220.312 82.179 199.34 81.002C181.733 82.0111 170.574 89.8025 164.182 96.3612C164.014 96.5296 163.846 96.7537 163.677 96.9222C159.248 101.631 157.341 105.555 157.341 105.555C156.836 106.732 156.332 107.909 155.883 109.086C155.322 110.488 154.818 111.889 154.313 113.291C153.921 114.524 153.472 115.757 153.136 116.99C153.024 117.383 152.911 117.775 152.799 118.167C152.687 118.616 152.575 119.008 152.463 119.457C152.463 119.457 152.463 119.513 152.463 119.569C152.182 120.634 151.902 121.699 151.678 122.82C151.678 122.82 151.678 122.876 151.678 122.932C151.229 124.894 150.893 126.968 150.612 129.042C150.612 129.266 150.612 129.491 150.556 129.715C149.659 136.946 149.827 144.906 151.454 153.987C151.565 154.66 151.678 155.277 151.846 155.949C152.519 159.201 153.36 162.62 154.425 166.152C157.509 177.587 153.36 180.839 146.127 180.67C149.715 184.818 154.369 186.892 160.257 186.5C160.537 186.5 160.818 186.5 161.098 186.444C161.659 186.444 162.22 186.276 162.836 186.22C162.836 190.424 159.472 193.227 154.145 195.133C156.108 196.703 158.07 198.048 159.92 199.169C160.089 199.281 160.257 199.393 160.425 199.449C164.35 201.804 167.995 203.205 171.36 203.485C172.481 207.353 169.004 209.764 164.406 211.838C164.126 211.894 163.902 212.006 163.677 212.062C160.257 213.071 156.949 214.136 153.752 215.145C152.127 215.65 150.5 216.21 148.874 216.715C142.257 218.901 136.089 221.143 130.482 223.441C124.987 225.684 121.118 228.767 118.482 232.579C117.809 233.588 117.192 234.653 116.688 235.718C114.781 239.698 113.884 244.238 113.66 249.171H121.51C121.79 241.716 124.146 229.608 135.921 227.758C136.202 227.758 136.426 227.646 136.706 227.646C141.697 237.007 147.08 244.518 153.36 248.218C153.36 248.218 153.36 248.218 153.416 248.218L163.341 247.714C152.855 241.38 143.827 234.372 140.687 224.674C148.594 221.311 156.724 218.733 165.079 217.555C165.191 217.555 165.304 217.555 165.416 217.555C173.827 213.856 179.658 207.858 181.34 197.992C186.556 200.851 192.107 203.317 199.565 203.429C207.022 203.317 212.574 200.851 217.788 197.992C219.47 207.802 225.302 213.856 233.713 217.555C242.236 218.677 250.423 221.311 258.442 224.674C255.302 234.372 246.217 241.38 235.788 247.714L245.713 248.218C252.049 244.518 257.432 236.951 262.423 227.59C274.871 229.047 277.282 241.548 277.619 249.115H285.469C285.469 248.499 285.413 247.938 285.357 247.377M199.62 196.983C176.911 198.664 166.593 171.981 166.593 171.981C158.743 173.383 155.603 159.929 155.603 159.929C149.435 142.888 158.631 135.265 158.631 135.265C163.79 135.489 165.584 141.151 166.537 148.326V130.556C167.154 125.791 181.957 124.782 181.957 124.782C180.78 115.869 191.041 108.974 191.041 108.974C191.546 114.131 187.901 121.867 187.901 121.867H211.228C211.228 121.867 207.583 114.131 208.088 108.974C208.088 108.974 218.349 115.869 217.172 124.782C217.172 124.782 224.124 125.286 228.667 127.136C228.947 127.249 229.227 127.36 229.451 127.473C231.134 128.257 232.424 129.323 232.592 130.612V148.382C233.489 141.599 235.171 136.105 239.713 135.376C239.937 135.376 240.218 135.321 240.498 135.321C240.498 135.321 249.75 142.944 243.526 159.985C243.526 159.985 240.554 172.654 233.265 172.094C233.152 172.094 233.097 172.094 232.984 172.094C232.816 172.094 232.704 172.094 232.536 172.094C232.536 172.094 232.536 172.094 232.536 172.206C232.536 172.206 232.424 172.486 232.311 172.823C230.517 176.97 220.143 198.664 199.62 197.151" fill="#249D64"/>
<path d="M149.996 249.283C149.996 249.283 149.492 249.339 149.211 249.395H123.586C123.922 240.706 127.174 234.091 134.576 230.448C134.8 230.335 135.025 230.223 135.249 230.111C138.67 237.287 143.324 243.845 149.996 249.283Z" fill="#249D64"/>
<path d="M275.096 249.395H249.471C249.471 249.395 248.966 249.339 248.686 249.283C255.359 243.845 260.013 237.287 263.433 230.111C271.339 233.699 274.76 240.426 275.096 249.395Z" fill="#249D64"/>
<path d="M198.443 0C89.6043 0 1.06445 88.5134 1.06445 197.319C1.06445 215.369 3.47561 232.803 8.01756 249.396H28.6526C23.606 232.915 20.8584 215.425 20.8584 197.319C20.8584 99.4441 100.539 19.788 198.443 19.788C296.347 19.788 376.028 99.4441 376.028 197.319C376.028 215.425 373.28 232.915 368.233 249.396H388.868C393.41 232.803 395.822 215.313 395.822 197.319C395.822 88.5134 307.281 0 198.443 0Z" fill="#249D64"/>
<path d="M54.9521 293.737C54.9521 293.737 54.9521 294.074 54.7279 294.074H45.8684C45.8684 294.074 45.5881 293.961 45.6441 293.737L50.13 278.434C50.13 278.434 50.1861 278.266 50.298 278.266C50.3541 278.266 50.4103 278.322 50.4665 278.434L54.9521 293.737Z" fill="white"/>
<path d="M215.098 293.737L210.612 278.433C210.612 278.433 210.5 278.209 210.443 278.265C210.332 278.265 210.275 278.321 210.275 278.433L205.789 293.737C205.789 293.737 205.845 294.073 206.07 294.073H214.873C214.873 294.073 215.21 293.961 215.098 293.737ZM215.098 293.737L210.612 278.433C210.612 278.433 210.5 278.209 210.443 278.265C210.332 278.265 210.275 278.321 210.275 278.433L205.789 293.737C205.789 293.737 205.845 294.073 206.07 294.073H214.873C214.873 294.073 215.21 293.961 215.098 293.737ZM215.098 293.737L210.612 278.433C210.612 278.433 210.5 278.209 210.443 278.265C210.332 278.265 210.275 278.321 210.275 278.433L205.789 293.737C205.789 293.737 205.845 294.073 206.07 294.073H214.873C214.873 294.073 215.21 293.961 215.098 293.737ZM298.591 278.433C298.591 278.433 298.591 278.209 298.423 278.265C298.367 278.265 298.311 278.321 298.254 278.433L293.825 293.737C293.825 293.737 293.825 294.073 294.049 294.073H302.909C302.909 294.073 303.189 293.961 303.133 293.737L298.591 278.433ZM298.591 278.433C298.591 278.433 298.591 278.209 298.423 278.265C298.367 278.265 298.311 278.321 298.254 278.433L293.825 293.737C293.825 293.737 293.825 294.073 294.049 294.073H302.909C302.909 294.073 303.189 293.961 303.133 293.737L298.591 278.433ZM215.098 293.737L210.612 278.433C210.612 278.433 210.5 278.209 210.443 278.265C210.332 278.265 210.275 278.321 210.275 278.433L205.789 293.737C205.789 293.737 205.845 294.073 206.07 294.073H214.873C214.873 294.073 215.21 293.961 215.098 293.737ZM397 252.703H0L17.0463 287.01L0 321.316H397L379.954 287.01L397 252.703ZM68.8582 307.751H59.7742C59.3258 307.751 59.0455 307.582 58.9332 307.19L57.4193 301.865C57.4193 301.865 57.2508 301.64 57.0828 301.64H43.5691C43.5691 301.64 43.3448 301.753 43.2887 301.865L41.7187 307.19C41.6065 307.582 41.3261 307.751 40.9336 307.751H31.8497C31.5693 307.751 31.4012 307.695 31.289 307.582C31.1768 307.414 31.1768 307.19 31.2329 306.91L43.9055 266.83C44.0737 266.437 44.298 266.269 44.6905 266.269H55.9053C56.2975 266.269 56.5783 266.437 56.6902 266.83L69.475 306.91C69.475 306.91 69.5312 307.134 69.5312 307.246C69.5312 307.582 69.307 307.751 68.8582 307.751ZM103.624 307.078C103.624 307.078 103.568 307.414 103.4 307.582C103.287 307.695 103.119 307.751 102.895 307.751H74.5779C74.5779 307.751 74.1853 307.695 74.0729 307.582C73.9049 307.414 73.8488 307.246 73.8488 307.078V266.941C73.8488 266.941 73.9049 266.605 74.0729 266.437C74.1853 266.325 74.3533 266.269 74.5779 266.269H82.9885C82.9885 266.269 83.325 266.269 83.4935 266.437C83.6053 266.605 83.7176 266.773 83.7176 266.941V299.062C83.7176 299.062 83.7176 299.342 83.9979 299.342H102.895C102.895 299.342 103.287 299.398 103.4 299.566C103.568 299.679 103.624 299.847 103.624 300.071V307.078ZM150.838 279.779C150.838 279.779 150.782 280.115 150.669 280.283C150.501 280.395 150.333 280.451 150.165 280.451H141.698C141.698 280.451 141.361 280.395 141.193 280.283C141.081 280.115 141.025 279.947 141.025 279.779C141.025 278.209 140.464 276.92 139.399 275.799C138.277 274.733 136.819 274.173 134.969 274.173C133.118 274.173 131.66 274.789 130.595 275.967C129.474 277.144 128.913 278.713 128.913 280.619V293.344C128.913 295.25 129.529 296.82 130.763 297.997C131.997 299.174 133.511 299.734 135.362 299.734C137.1 299.734 138.501 299.286 139.567 298.389C140.632 297.436 141.193 296.147 141.193 294.465V292.84C141.193 292.84 141.081 292.503 140.913 292.503H134.969C134.969 292.503 134.576 292.447 134.464 292.335C134.296 292.167 134.24 291.999 134.24 291.831V285.272C134.24 285.272 134.296 284.936 134.464 284.768C134.576 284.655 134.745 284.543 134.969 284.543H150.165C150.165 284.543 150.501 284.655 150.669 284.768C150.782 284.936 150.838 285.104 150.838 285.272V293.344C150.838 296.315 150.221 298.95 148.875 301.192C147.529 303.435 145.679 305.172 143.268 306.405C140.913 307.639 138.109 308.255 134.969 308.255C131.829 308.255 129.025 307.639 126.614 306.349C124.203 305.06 122.353 303.322 121.063 301.024C119.717 298.726 119.044 296.035 119.044 293.064V280.9C119.044 277.873 119.717 275.238 121.063 272.996C122.353 270.697 124.203 268.96 126.614 267.67C129.025 266.381 131.773 265.764 134.969 265.764C138.165 265.764 140.857 266.381 143.268 267.558C145.679 268.791 147.529 270.417 148.875 272.547C150.221 274.621 150.838 276.92 150.838 279.498V279.779ZM187.398 307.078C187.398 307.078 187.341 307.414 187.229 307.582C187.061 307.695 186.893 307.751 186.725 307.751H178.257C178.257 307.751 177.921 307.695 177.753 307.582C177.641 307.414 177.584 307.246 177.584 307.078V291.27C177.584 291.27 177.473 290.99 177.248 290.99H166.145C166.145 290.99 165.865 291.102 165.865 291.27V307.078C165.865 307.078 165.809 307.414 165.641 307.582C165.529 307.695 165.361 307.751 165.137 307.751H156.725C156.725 307.751 156.389 307.695 156.22 307.582C156.109 307.414 155.996 307.246 155.996 307.078V266.941C155.996 266.941 156.109 266.605 156.22 266.437C156.389 266.325 156.557 266.269 156.725 266.269H165.137C165.137 266.269 165.529 266.269 165.641 266.437C165.809 266.605 165.865 266.773 165.865 266.941V282.245C165.865 282.245 165.977 282.581 166.145 282.581H177.248C177.248 282.581 177.584 282.469 177.584 282.245V266.941C177.584 266.941 177.641 266.605 177.753 266.437C177.921 266.325 178.089 266.269 178.257 266.269H186.725C186.725 266.269 187.061 266.269 187.229 266.437C187.341 266.605 187.398 266.773 187.398 266.941V307.078ZM229.004 307.751H219.92C219.471 307.751 219.191 307.582 219.079 307.19L217.565 301.865C217.565 301.865 217.397 301.64 217.284 301.64H203.715C203.715 301.64 203.491 301.753 203.434 301.865L201.864 307.19C201.752 307.582 201.472 307.751 201.08 307.751H191.996C191.715 307.751 191.547 307.695 191.435 307.582C191.323 307.414 191.323 307.19 191.379 306.91L204.107 266.83C204.22 266.437 204.444 266.269 204.837 266.269H216.051C216.443 266.269 216.724 266.437 216.836 266.83L229.621 306.91C229.621 306.91 229.677 307.134 229.677 307.246C229.677 307.582 229.452 307.751 229.004 307.751ZM271.9 307.751H263.433C262.984 307.751 262.76 307.526 262.648 307.134L257.489 284.207C257.489 284.207 257.377 283.983 257.321 283.983C257.209 283.983 257.153 284.039 257.153 284.207L252.499 307.134C252.443 307.526 252.162 307.751 251.714 307.751H243.807C243.359 307.751 243.078 307.582 242.966 307.19L231.92 266.998V266.773C231.864 266.437 232.088 266.269 232.536 266.269H241.508C241.901 266.269 242.181 266.437 242.293 266.83L247.452 288.411C247.452 288.411 247.564 288.691 247.621 288.691C247.732 288.691 247.789 288.579 247.845 288.411L252.443 266.885C252.499 266.437 252.779 266.269 253.228 266.269H261.47C261.863 266.269 262.143 266.437 262.255 266.83L267.414 288.411C267.414 288.411 267.471 288.691 267.582 288.691C267.639 288.691 267.695 288.579 267.751 288.411L272.573 266.885C272.629 266.437 272.909 266.269 273.358 266.269H282.105C282.666 266.269 282.891 266.493 282.778 266.998L272.741 307.19C272.629 307.582 272.349 307.751 271.9 307.751ZM316.983 307.751H307.955C307.507 307.751 307.226 307.582 307.114 307.19L305.544 301.865C305.544 301.865 305.376 301.64 305.264 301.64H291.75C291.75 301.64 291.526 301.753 291.414 301.865L289.9 307.19C289.788 307.582 289.507 307.751 289.059 307.751H279.975C279.975 307.751 279.582 307.695 279.47 307.582C279.302 307.414 279.302 307.19 279.358 306.91L292.086 266.83C292.199 266.437 292.479 266.269 292.872 266.269H304.087C304.479 266.269 304.703 266.437 304.815 266.83L317.6 306.91C317.6 306.91 317.656 307.134 317.656 307.246C317.656 307.582 317.432 307.751 316.983 307.751ZM351.805 307.078C351.805 307.078 351.693 307.414 351.58 307.582C351.412 307.695 351.244 307.751 351.076 307.751H322.703C322.703 307.751 322.31 307.695 322.198 307.582C322.086 307.414 321.974 307.246 321.974 307.078V266.941C321.974 266.941 322.086 266.605 322.198 266.437C322.31 266.325 322.478 266.269 322.703 266.269H331.113C331.113 266.269 331.506 266.269 331.618 266.437C331.786 266.605 331.843 266.773 331.843 266.941V299.062C331.843 299.062 331.955 299.342 332.123 299.342H351.076C351.076 299.342 351.412 299.398 351.58 299.566C351.693 299.679 351.805 299.847 351.805 300.071V307.078ZM365.823 307.078C365.823 307.078 365.767 307.414 365.655 307.582C365.487 307.695 365.318 307.751 365.15 307.751H356.683C356.683 307.751 356.347 307.695 356.179 307.582C356.066 307.414 356.01 307.246 356.01 307.078V266.941C356.01 266.941 356.01 266.605 356.179 266.437C356.347 266.325 356.515 266.269 356.683 266.269H365.15C365.15 266.269 365.487 266.269 365.655 266.437C365.767 266.605 365.823 266.773 365.823 266.941V307.078ZM298.423 278.265C298.423 278.265 298.311 278.321 298.254 278.433L293.825 293.737C293.825 293.737 293.825 294.073 294.049 294.073H302.909C302.909 294.073 303.189 293.961 303.133 293.737L298.591 278.433C298.591 278.433 298.591 278.209 298.423 278.265ZM210.612 278.433C210.612 278.433 210.5 278.209 210.443 278.265C210.332 278.265 210.275 278.321 210.275 278.433L205.789 293.737C205.789 293.737 205.845 294.073 206.07 294.073H214.873C214.873 294.073 215.21 293.961 215.098 293.737L210.612 278.433ZM215.098 293.737L210.612 278.433C210.612 278.433 210.5 278.209 210.443 278.265C210.332 278.265 210.275 278.321 210.275 278.433L205.789 293.737C205.789 293.737 205.845 294.073 206.07 294.073H214.873C214.873 294.073 215.21 293.961 215.098 293.737ZM298.591 278.433C298.591 278.433 298.591 278.209 298.423 278.265C298.367 278.265 298.311 278.321 298.254 278.433L293.825 293.737C293.825 293.737 293.825 294.073 294.049 294.073H302.909C302.909 294.073 303.189 293.961 303.133 293.737L298.591 278.433ZM298.591 278.433C298.591 278.433 298.591 278.209 298.423 278.265C298.367 278.265 298.311 278.321 298.254 278.433L293.825 293.737C293.825 293.737 293.825 294.073 294.049 294.073H302.909C302.909 294.073 303.189 293.961 303.133 293.737L298.591 278.433ZM215.098 293.737L210.612 278.433C210.612 278.433 210.5 278.209 210.443 278.265C210.332 278.265 210.275 278.321 210.275 278.433L205.789 293.737C205.789 293.737 205.845 294.073 206.07 294.073H214.873C214.873 294.073 215.21 293.961 215.098 293.737ZM215.098 293.737L210.612 278.433C210.612 278.433 210.5 278.209 210.443 278.265C210.332 278.265 210.275 278.321 210.275 278.433L205.789 293.737C205.789 293.737 205.845 294.073 206.07 294.073H214.873C214.873 294.073 215.21 293.961 215.098 293.737ZM215.098 293.737L210.612 278.433C210.612 278.433 210.5 278.209 210.443 278.265C210.332 278.265 210.275 278.321 210.275 278.433L205.789 293.737C205.789 293.737 205.845 294.073 206.07 294.073H214.873C214.873 294.073 215.21 293.961 215.098 293.737Z" fill="white"/>
<path d="M197.827 28.5332C109.119 28.5332 36.8965 100.678 36.8965 189.415C36.8965 209.82 40.7095 229.327 47.6626 247.322C47.943 248.05 48.2233 248.723 48.5038 249.452H55.5128C53.9427 245.808 52.5411 242.052 51.3075 238.241C46.1486 222.881 43.401 206.456 43.401 189.415C43.401 104.266 112.652 35.0358 197.827 35.0358C283.003 35.0358 352.253 104.266 352.253 189.415C352.253 206.064 349.618 222.096 344.684 237.175C343.338 241.324 341.768 245.416 340.085 249.452H347.095C347.768 247.826 348.385 246.201 349.001 244.575C355.281 227.366 358.702 208.811 358.702 189.471C358.702 100.79 286.535 28.5893 197.827 28.5893" fill="white"/>
<path d="M2.01953 357.641V328.379C2.01953 327.875 2.2999 327.65 2.74849 327.65H7.45867C7.85117 327.65 8.13154 327.763 8.35584 328.155L14.7482 338.469C14.7482 338.469 15.0286 338.638 15.0847 338.469L21.5331 328.155C21.7574 327.819 22.0378 327.65 22.4303 327.65H27.1404C27.6451 327.65 27.8694 327.931 27.8694 328.379V357.641C27.8694 358.145 27.589 358.369 27.1404 358.369H22.4303C21.9256 358.369 21.7013 358.089 21.7013 357.641V338.582C21.7013 338.582 21.5331 338.245 21.3649 338.469L16.9351 345.701C16.7108 346.037 16.4304 346.205 16.0379 346.205H13.7949C13.4024 346.205 13.1221 346.093 12.8978 345.701L8.52403 338.469C8.52403 338.469 8.24366 338.301 8.24366 338.582V357.641C8.24366 358.145 7.96329 358.369 7.51473 358.369H2.74849C2.24383 358.369 2.01953 358.089 2.01953 357.641Z" fill="#249D64"/>
<path d="M52.2045 357.752L50.9709 353.66C50.9709 353.66 50.8586 353.436 50.6901 353.436H39.9243C39.9243 353.436 39.7 353.436 39.6439 353.66L38.4103 357.752C38.2981 358.145 38.0177 358.369 37.5692 358.369H32.4665C31.9619 358.369 31.6815 358.033 31.8497 357.528L41.2139 328.21C41.3261 327.818 41.6065 327.594 42.055 327.594H48.5037C48.952 327.594 49.2324 327.818 49.3447 328.21L58.709 357.528C58.877 358.033 58.5967 358.369 58.0922 358.369H52.9893C52.5405 358.369 52.2602 358.145 52.1484 357.752H52.2045ZM41.4382 348.671H49.2324C49.2324 348.671 49.5127 348.559 49.4565 348.391L45.4755 334.994C45.4755 334.994 45.1952 334.769 45.1391 334.994L41.2139 348.391C41.2139 348.391 41.2139 348.671 41.4382 348.671Z" fill="#249D64"/>
<path d="M62.6914 357.641V328.379C62.6914 327.875 62.9717 327.65 63.42 327.65H67.9623C68.355 327.65 68.6353 327.763 68.8594 328.155L79.8496 346.43C79.8496 346.43 80.186 346.598 80.186 346.317V328.379C80.186 327.875 80.4664 327.65 80.9152 327.65H85.5131C86.0181 327.65 86.2422 327.931 86.2422 328.379V357.641C86.2422 358.145 85.9619 358.369 85.5131 358.369H81.0275C80.6348 358.369 80.3545 358.201 80.1304 357.865L69.0836 339.422C69.0836 339.422 68.7471 339.254 68.7471 339.535V357.697C68.7471 358.201 68.5229 358.426 68.0741 358.426H63.42C62.9156 358.426 62.6914 358.145 62.6914 357.697V357.641Z" fill="#249D64"/>
<path d="M113.829 337.124C113.829 342.729 109.848 346.429 103.848 346.429H97.6241C97.6241 346.429 97.3438 346.541 97.3438 346.709V357.64C97.3438 358.145 97.0635 358.369 96.6147 358.369H91.9044C91.3999 358.369 91.1758 358.089 91.1758 357.64V328.323C91.1758 327.818 91.4561 327.594 91.9044 327.594H104.072C109.904 327.594 113.773 331.406 113.773 337.124H113.829ZM107.661 337.236C107.661 334.657 105.867 332.919 103.175 332.919H97.6241C97.6241 332.919 97.3438 333.032 97.3438 333.199V341.215C97.3438 341.215 97.4561 341.496 97.6241 341.496H103.175C105.867 341.496 107.661 339.758 107.661 337.292V337.236Z" fill="#249D64"/>
<path d="M117.027 347.718V338.301C117.027 331.686 121.625 327.258 128.579 327.258C135.531 327.258 140.186 331.686 140.186 338.301V347.718C140.186 354.389 135.588 358.874 128.579 358.874C121.569 358.874 117.027 354.389 117.027 347.718ZM134.017 347.943V338.245C134.017 334.826 131.887 332.583 128.634 332.583C125.382 332.583 123.252 334.826 123.252 338.245V347.943C123.252 351.306 125.382 353.549 128.634 353.549C131.887 353.549 134.017 351.306 134.017 347.943Z" fill="#249D64"/>
<path d="M149.606 357.753L141.868 328.492C141.756 327.987 141.98 327.65 142.541 327.65H147.531C147.98 327.65 148.26 327.875 148.317 328.323L152.466 345.869C152.466 345.869 152.802 346.093 152.802 345.869L156.783 328.323C156.896 327.875 157.12 327.65 157.569 327.65H162.559C163.008 327.65 163.288 327.875 163.4 328.323L167.718 345.869C167.718 345.869 167.998 346.093 167.998 345.869L171.979 328.323C172.092 327.875 172.316 327.65 172.765 327.65H177.53C178.035 327.65 178.26 327.987 178.147 328.492L171.082 357.753C170.97 358.201 170.689 358.426 170.241 358.426H165.419C164.97 358.426 164.69 358.201 164.578 357.753L160.204 339.086C160.204 339.086 159.924 338.806 159.867 339.086L155.774 357.753C155.662 358.201 155.438 358.426 154.989 358.426H150.503C150.055 358.426 149.774 358.145 149.662 357.753H149.606Z" fill="#249D64"/>
<path d="M202.034 332.919H187.847C187.847 332.919 187.567 333.032 187.567 333.199V339.927C187.567 339.927 187.679 340.207 187.847 340.207H197.043C197.548 340.207 197.772 340.487 197.772 340.935V344.747C197.772 345.252 197.492 345.476 197.043 345.476H187.847C187.847 345.476 187.567 345.588 187.567 345.756V352.763C187.567 352.763 187.679 353.043 187.847 353.043H202.034C202.539 353.043 202.763 353.324 202.763 353.772V357.584C202.763 358.089 202.483 358.313 202.034 358.313H182.184C181.679 358.313 181.455 358.033 181.455 357.584V328.323C181.455 327.818 181.735 327.594 182.184 327.594H202.034C202.539 327.594 202.763 327.874 202.763 328.323V332.135C202.763 332.639 202.483 332.863 202.034 332.863V332.919Z" fill="#249D64"/>
<path d="M223.284 357.808L217.901 345.868C217.901 345.868 217.733 345.644 217.621 345.644H213.64C213.64 345.644 213.359 345.756 213.359 345.924V357.64C213.359 358.145 213.079 358.369 212.63 358.369H207.921C207.416 358.369 207.191 358.089 207.191 357.64V328.323C207.191 327.818 207.472 327.594 207.921 327.594H220.257C225.92 327.594 229.677 331.35 229.677 336.843C229.677 340.823 227.546 343.85 224.07 345.027C223.901 345.027 223.845 345.252 223.957 345.364L229.789 357.472C230.069 357.976 229.789 358.369 229.284 358.369H224.294C223.901 358.369 223.565 358.145 223.397 357.808H223.284ZM213.303 333.199V340.599C213.303 340.599 213.416 340.88 213.584 340.88H219.303C221.771 340.88 223.509 339.31 223.509 336.955C223.509 334.601 221.771 332.975 219.303 332.975H213.584C213.584 332.975 213.303 333.088 213.303 333.256V333.199Z" fill="#249D64"/>
<path d="M241.846 349.569V348.84C241.846 348.336 242.126 348.111 242.575 348.111H247.173C247.677 348.111 247.901 348.336 247.901 348.672V349.289C247.901 351.531 250.144 353.493 253.733 353.493C257.098 353.493 258.331 351.811 258.331 350.074C258.331 347.831 256.088 347.047 251.883 345.477C247.285 343.907 242.014 341.833 242.014 336.003C242.014 330.622 246.444 327.314 252.724 327.314C259.509 327.314 264.275 331.07 264.275 336.788V337.236C264.275 337.741 263.994 337.965 263.546 337.965H258.948C258.443 337.965 258.219 337.797 258.219 337.517V337.068C258.219 334.77 256.256 332.64 252.556 332.64C249.752 332.64 248.182 333.873 248.182 335.947C248.182 338.246 250.144 339.03 255.023 340.712C259.004 342.169 264.556 343.851 264.556 349.849C264.556 355.231 260.182 358.762 253.285 358.762C246.387 358.762 241.846 355.174 241.846 349.569Z" fill="#249D64"/>
<path d="M268.648 348.167V328.323C268.648 327.818 268.929 327.594 269.378 327.594H274.088C274.592 327.594 274.816 327.874 274.816 328.323V348.223C274.816 351.306 276.892 353.436 280.032 353.436C283.171 353.436 285.246 351.306 285.246 348.223V328.323C285.246 327.818 285.527 327.594 285.975 327.594H290.685C291.19 327.594 291.414 327.874 291.414 328.323V348.167C291.414 354.501 286.817 358.705 280.032 358.705C273.246 358.705 268.648 354.501 268.648 348.167Z" fill="#249D64"/>
<path d="M318.946 337.124C318.946 342.729 314.965 346.429 308.966 346.429H302.741C302.741 346.429 302.461 346.541 302.461 346.709V357.64C302.461 358.145 302.181 358.369 301.732 358.369H297.022C296.517 358.369 296.293 358.089 296.293 357.64V328.323C296.293 327.818 296.573 327.594 297.022 327.594H309.19C315.021 327.594 318.891 331.406 318.891 337.124H318.946ZM312.778 337.236C312.778 334.657 310.984 332.919 308.293 332.919H302.741C302.741 332.919 302.461 333.032 302.461 333.199V341.215C302.461 341.215 302.573 341.496 302.741 341.496H308.293C310.984 341.496 312.778 339.758 312.778 337.292V337.236Z" fill="#249D64"/>
<path d="M345.189 337.124C345.189 342.729 341.208 346.429 335.208 346.429H328.984C328.984 346.429 328.703 346.541 328.703 346.709V357.64C328.703 358.145 328.423 358.369 327.974 358.369H323.264C322.759 358.369 322.535 358.089 322.535 357.64V328.323C322.535 327.818 322.815 327.594 323.264 327.594H335.432C341.264 327.594 345.133 331.406 345.133 337.124H345.189ZM339.021 337.236C339.021 334.657 337.227 332.919 334.535 332.919H328.984C328.984 332.919 328.703 333.032 328.703 333.199V341.215C328.703 341.215 328.816 341.496 328.984 341.496H334.535C337.227 341.496 339.021 339.758 339.021 337.292V337.236Z" fill="#249D64"/>
<path d="M349.002 357.641V328.379C349.002 327.875 349.283 327.65 349.731 327.65H354.441C354.946 327.65 355.17 327.931 355.17 328.379V352.82C355.17 352.82 355.282 353.1 355.451 353.1H369.581C370.086 353.1 370.31 353.38 370.31 353.829V357.641C370.31 358.145 370.03 358.369 369.581 358.369H349.731C349.227 358.369 349.002 358.089 349.002 357.641Z" fill="#249D64"/>
<path d="M379.675 357.584V346.709C379.675 346.709 379.675 346.429 379.562 346.373L370.703 328.491C370.423 327.986 370.703 327.594 371.207 327.594H376.31C376.702 327.594 377.039 327.818 377.207 328.155L382.591 339.59C382.591 339.59 382.871 339.758 382.927 339.59L388.31 328.155C388.478 327.818 388.814 327.594 389.207 327.594H394.366C394.927 327.594 395.207 327.986 394.927 328.491L385.955 346.373C385.955 346.373 385.843 346.653 385.843 346.709V357.584C385.843 358.089 385.562 358.313 385.113 358.313H380.459C379.955 358.313 379.731 358.033 379.731 357.584H379.675Z" fill="#249D64"/>
</svg>
