<svg width="322" height="294" viewBox="0 0 322 294" fill="none" xmlns="http://www.w3.org/2000/svg">
<g clip-path="url(#clip0_6324_38302)">
<path d="M282.958 198.68C282.868 198.317 282.777 197.955 282.642 197.593C281.917 195.418 280.693 193.425 279.153 191.659C270.724 181.874 252.464 177.662 252.464 177.662C234.384 175.578 232.753 161.535 232.753 161.535C241.408 154.605 244.987 144.82 244.987 144.82C257.901 139.475 254.457 120.858 254.457 120.858C252.509 118.774 248.703 98.5257 248.703 98.5257C230.714 62.9667 198.135 78.0057 192.561 80.9046C192.38 80.9953 192.199 81.0857 192.108 81.1764C191.882 81.3121 191.746 81.4029 191.746 81.4029C187.849 87.3822 185.901 94.947 185.176 103.01C185.402 103.101 185.629 103.191 185.81 103.282C187.169 103.916 188.211 104.777 188.347 105.819V116.328C189.254 112.477 190.885 109.714 194.057 109.579C194.057 109.579 194.057 109.579 194.102 109.623C194.283 109.623 194.51 109.579 194.736 109.579C194.736 109.579 202.213 115.739 197.183 129.51C197.183 129.51 194.782 139.747 188.891 139.294C188.71 139.294 188.529 139.294 188.302 139.294C188.302 139.294 188.121 139.294 188.03 139.294C188.03 139.475 188.076 139.611 188.121 139.792C188.937 143.914 189.797 147.719 190.568 150.935C190.749 151.66 190.93 152.385 191.066 153.11C191.927 156.734 192.652 159.497 192.969 161.082C192.969 161.218 192.969 161.354 193.014 161.445C193.014 161.716 193.105 161.943 193.105 162.124C193.377 166.654 190.341 170.278 189.525 171.139C189.39 171.274 189.344 171.365 189.344 171.365L192.063 171.999L194.736 172.588C196.911 170.278 198.089 167.379 198.588 164.072C209.871 169.961 219.93 168.738 229.219 163.393C230.216 171.048 234.339 175.487 240.003 178.386C240.501 186.404 236.469 192.746 230.759 198.499L230.623 198.634L230.261 200.129L229.944 201.534H283.004C283.004 199.812 283.004 198.68 283.004 198.68M198.089 157.957C197.818 157.776 197.546 157.64 197.274 157.458C194.6 156.371 192.652 154.967 191.746 153.065C191.429 152.385 191.247 151.705 191.247 150.89C191.247 150.8 191.247 150.709 191.247 150.619C196.64 151.57 200.808 150.211 204.071 146.904C204.071 146.904 204.116 146.859 204.161 146.813C203.889 146.813 203.663 146.859 203.436 146.904C200.808 147.085 198.905 146.224 197.908 144.141C196.775 141.74 196.866 137.618 198.543 131.322C201.443 123.304 201.715 114.425 200.536 105.003C200.4 104.142 200.31 103.282 200.174 102.421C200.174 102.376 200.174 102.285 200.174 102.24C199.811 99.7487 199.313 97.2573 198.769 94.7206C198.905 94.7206 199.041 94.766 199.132 94.8109C210.233 97.2573 220.474 97.7556 229.264 94.7206C235.291 93.4522 239.187 97.5741 240.547 108.219C242.087 117.415 241.679 125.976 237.284 133.269C240.048 133.858 242.359 130.506 243.628 118.683C245.939 113.837 248.204 113.791 250.425 121.356C251.739 129.736 249.836 136.848 241.816 141.559C231.53 160.629 218.253 170.187 198.18 157.912" fill="#031D92"/>
<path d="M122.658 117.548C122.884 114.423 123.156 110.346 123.383 106.496L122.658 117.548ZM132.671 171.544V171.363V171.045L128.186 162.666L129.545 161.397L129.817 161.125L135.299 155.961L130.451 144.32L122.974 124.615L122.34 122.984L123.292 126.246L127.143 139.609V146.585L130.587 149.529L130.134 150.888L130.043 151.16C132.581 152.156 116.268 163.254 112.87 161.941V157.139H105.394V161.443C92.9327 159.494 84.8222 152.745 80.6986 141.602C80.6986 141.602 64.5225 132.451 74.9894 116.643C74.9894 116.643 80.8348 120.357 81.5143 134.807C81.5143 134.807 88.6734 143.051 84.2784 130.232C79.8829 117.458 79.6564 87.244 100.364 94.7182C100.364 94.7182 111.647 112.928 121.162 104.004L121.661 104.457L122.295 105.001L123.518 106.133C123.654 103.642 123.79 101.241 123.836 99.2934C123.836 99.2934 123.609 99.2934 123.201 99.3837C123.02 99.3837 122.793 99.4291 122.521 99.4745C119.712 99.7917 113.369 100.109 112.462 96.1676V95.9412L123.473 95.579H123.836C123.836 95.1257 123.836 94.8089 123.745 94.6274C123.745 94.5371 123.745 94.4917 123.7 94.4917C123.518 94.2199 123.926 93.1326 124.742 91.6378C125.285 90.6412 125.92 89.4636 126.69 88.2406C129.182 84.1183 132.354 79.3166 132.943 78.4108C132.988 78.32 133.034 78.2751 133.034 78.2751C132.898 78.1843 132.807 78.0486 132.671 77.9579C123.111 69.4872 106.889 71.1631 106.798 71.9786C106.708 72.794 92.0266 77.1424 92.0266 77.1424C75.0348 79.5434 70.8658 94.3556 71.0474 113.336C64.8847 128.918 67.8299 139.02 78.0707 144.773C80.019 150.299 84.0972 156.233 89.3534 162.394C89.8518 171.952 73.1768 178.475 52.3333 184.273C47.7117 186.628 44.3131 189.391 42.1383 192.472C40.5522 194.737 39.6008 197.183 39.193 199.81C39.1024 200.353 39.057 200.942 39.0117 201.531H97.9624C98.1889 195.371 100.138 185.314 110.242 184.137C110.242 184.137 110.242 184.182 110.287 184.227C110.514 184.227 110.695 184.137 110.922 184.137C114.909 191.702 119.304 197.772 124.379 200.761L131.765 200.399C123.292 195.28 115.996 189.618 113.414 181.781C119.803 179.063 126.373 176.98 133.125 176.074L132.717 171.544H132.671ZM123.971 174.035C123.02 174.398 121.933 174.851 120.709 175.303C112.961 178.429 100.953 183.729 96.1498 188.168C95.0626 189.165 94.3826 190.116 94.1561 190.977C94.1561 190.977 94.1111 190.886 94.0204 190.705C93.0689 188.984 87.7673 179.245 88.3565 175.168C88.3565 175.168 93.2046 169.188 93.2046 165.927C98.2343 170.411 103.4 173.628 108.837 173.764C115.861 171.544 120.845 168.554 124.289 164.976C124.968 167.829 125.965 170.502 127.778 172.631C127.778 172.631 126.328 173.175 123.971 174.08M109.336 186.311C103.355 189.256 100.726 194.601 100.455 201.622H120.482C120.482 201.622 120.936 201.577 121.162 201.531C115.861 197.183 112.145 192.019 109.381 186.311M123.79 95.8508V96.8474V99.3837C123.79 98.3872 123.79 97.5267 123.79 96.802C123.79 96.4848 123.79 96.1676 123.79 95.8958" fill="#031D92"/>
<path d="M121.818 201.442C121.818 201.442 121.41 201.487 121.184 201.533H100.477C100.748 194.512 103.376 189.166 109.357 186.222C109.539 186.131 109.72 186.041 109.901 185.95C112.665 191.748 116.426 197.048 121.818 201.442Z" fill="#28BB76"/>
<path d="M121.818 201.442C121.818 201.442 121.41 201.487 121.184 201.533H100.477C100.748 194.512 103.376 189.166 109.357 186.222C109.539 186.131 109.72 186.041 109.901 185.95C112.665 191.748 116.426 197.048 121.818 201.442Z" fill="#28BB76"/>
<path d="M230.934 200.127C230.934 199.583 230.843 198.995 230.753 198.451C229.756 190.66 226.176 184.273 217.386 180.739C209.955 177.704 201.436 174.805 192.011 171.952C191.331 171.77 190.652 171.544 189.972 171.363C189.791 171.272 189.655 171.227 189.519 171.136C186.03 169.506 183.447 167.603 184.308 164.613C186.936 164.387 189.881 163.299 193.008 161.442C193.189 161.306 193.416 161.171 193.597 161.08C195.047 160.219 196.497 159.178 198.037 157.955C198.083 157.955 198.173 157.864 198.219 157.818C197.902 157.683 197.584 157.592 197.222 157.456C194.548 156.369 192.6 154.965 191.694 153.062C191.377 152.428 191.195 151.703 191.195 150.888C191.195 150.797 191.195 150.707 191.195 150.616C196.587 151.567 200.756 150.209 204.018 146.902C204.018 146.902 204.064 146.856 204.109 146.811C204.336 146.585 204.517 146.358 204.744 146.132C202.025 146.177 199.85 145.633 198.536 144.093C197.04 142.326 196.724 139.291 198.037 134.354C201.526 122.758 202.161 113.245 201.164 104.955C201.073 104.05 200.937 103.234 200.801 102.374C200.801 102.328 200.801 102.238 200.801 102.192C200.394 99.6105 199.804 97.1187 199.08 94.7635C198.128 91.502 196.95 88.3762 195.636 85.3412C195.636 85.3412 194.775 83.575 192.826 81.0382C192.781 80.9475 192.691 80.8567 192.6 80.7664C188.205 75.1946 178.644 66.4067 161.697 65.4556C147.469 66.271 138.452 72.5671 133.287 77.8671C133.151 78.0032 133.015 78.1843 132.879 78.3204C129.299 82.1251 127.759 85.2962 127.759 85.2962C127.351 86.2474 126.943 87.1986 126.58 88.1498C126.127 89.2824 125.72 90.4147 125.312 91.5474C124.995 92.5439 124.632 93.5405 124.36 94.537C124.27 94.8542 124.179 95.171 124.088 95.4882C123.998 95.8508 123.907 96.1676 123.817 96.5301C123.817 96.5301 123.817 96.5755 123.817 96.6205C123.59 97.4813 123.363 98.3421 123.182 99.248C123.182 99.248 123.182 99.2933 123.182 99.3387C122.82 100.924 122.548 102.6 122.321 104.276C122.321 104.457 122.321 104.638 122.276 104.82C121.551 110.663 121.687 117.096 123.001 124.434C123.091 124.977 123.182 125.475 123.318 126.019C123.862 128.647 124.542 131.41 125.402 134.263C127.895 143.504 124.542 146.132 118.696 145.995C121.596 149.348 125.357 151.024 130.115 150.707C130.341 150.707 130.568 150.707 130.795 150.661C131.248 150.661 131.701 150.525 132.199 150.48C132.199 153.878 129.481 156.142 125.176 157.683C126.762 158.951 128.348 160.038 129.843 160.944C129.979 161.035 130.115 161.125 130.251 161.171C133.423 163.073 136.368 164.206 139.087 164.432C139.993 167.557 137.184 169.506 133.468 171.181C133.241 171.227 133.06 171.317 132.879 171.363C130.115 172.178 127.442 173.038 124.859 173.854C123.545 174.262 122.231 174.715 120.917 175.122C115.57 176.889 110.585 178.701 106.054 180.558C101.614 182.37 98.4874 184.861 96.3576 187.942C95.8138 188.757 95.3153 189.618 94.9077 190.479C93.367 193.695 92.6421 197.364 92.4609 201.35H98.8043C99.0308 195.325 100.934 185.541 110.45 184.046C110.676 184.046 110.857 183.956 111.084 183.956C115.117 191.52 119.467 197.59 124.542 200.58C124.542 200.58 124.542 200.58 124.587 200.58L132.607 200.172C124.134 195.054 116.838 189.391 114.301 181.555C120.69 178.837 127.26 176.753 134.012 175.802C134.102 175.802 134.193 175.802 134.284 175.802C141.081 172.812 145.793 167.965 147.152 159.993C151.366 162.303 155.852 164.296 161.879 164.387C167.905 164.296 172.391 162.303 176.605 159.993C177.964 167.92 182.677 172.812 189.474 175.802C196.361 176.708 202.977 178.837 209.456 181.555C206.919 189.391 199.578 195.054 191.15 200.172L199.17 200.58C204.29 197.59 208.64 191.475 212.673 183.91C222.732 185.088 224.681 195.189 224.953 201.305H231.296C231.296 200.807 231.251 200.353 231.206 199.9M161.924 159.178C143.573 160.536 135.235 138.974 135.235 138.974C128.891 140.107 126.354 129.235 126.354 129.235C121.37 115.465 128.801 109.304 128.801 109.304C132.97 109.485 134.419 114.061 135.19 119.859V105.499C135.688 101.649 147.65 100.834 147.65 100.834C146.699 93.6308 154.991 88.0594 154.991 88.0594C155.399 92.2267 152.454 98.4779 152.454 98.4779H171.303C171.303 98.4779 168.358 92.2267 168.766 88.0594C168.766 88.0594 177.058 93.6308 176.107 100.834C176.107 100.834 181.725 101.241 185.395 102.736C185.622 102.827 185.849 102.917 186.03 103.008C187.389 103.642 188.431 104.503 188.567 105.544V119.904C189.292 114.423 190.652 109.984 194.322 109.395C194.503 109.395 194.73 109.35 194.956 109.35C194.956 109.35 202.433 115.51 197.403 129.281C197.403 129.281 195.001 139.518 189.111 139.065C189.02 139.065 188.975 139.065 188.884 139.065C188.748 139.065 188.658 139.065 188.522 139.065C188.522 139.065 188.522 139.065 188.522 139.156C188.522 139.156 188.431 139.382 188.341 139.654C186.891 143.006 178.508 160.536 161.924 159.313" fill="#28BB76"/>
<path d="M121.818 201.442C121.818 201.442 121.41 201.487 121.184 201.533H100.477C100.748 194.512 103.376 189.166 109.357 186.222C109.539 186.131 109.72 186.041 109.901 185.95C112.665 191.748 116.426 197.048 121.818 201.442Z" fill="#28BB76"/>
<path d="M222.916 201.533H202.209C202.209 201.533 201.801 201.487 201.574 201.442C206.967 197.048 210.727 191.748 213.491 185.95C219.88 188.849 222.644 194.285 222.916 201.533Z" fill="#28BB76"/>
<path d="M160.955 0.000488281C73.0044 0.000488281 1.45703 71.5265 1.45703 159.45C1.45703 174.036 3.40544 188.124 7.0757 201.532H23.7505C19.6724 188.215 17.4521 174.081 17.4521 159.45C17.4521 80.3594 81.8403 15.9908 160.955 15.9908C240.069 15.9908 304.458 80.3594 304.458 159.45C304.458 174.081 302.237 188.215 298.159 201.532H314.834C318.504 188.124 320.453 173.991 320.453 159.45C320.453 71.5265 248.905 0.000488281 160.955 0.000488281Z" fill="#28BB76"/>
<path d="M45.008 237.363C45.008 237.363 45.008 237.634 44.8269 237.634H37.6677C37.6677 237.634 37.4412 237.544 37.4865 237.363L41.1114 224.996C41.1114 224.996 41.1568 224.86 41.2471 224.86C41.2925 224.86 41.3379 224.906 41.3833 224.996L45.008 237.363Z" fill="#031D92"/>
<path d="M174.418 237.363L170.793 224.996C170.793 224.996 170.702 224.815 170.657 224.86C170.566 224.86 170.521 224.906 170.521 224.996L166.896 237.363C166.896 237.363 166.941 237.634 167.123 237.634H174.237C174.237 237.634 174.508 237.544 174.418 237.363ZM174.418 237.363L170.793 224.996C170.793 224.996 170.702 224.815 170.657 224.86C170.566 224.86 170.521 224.906 170.521 224.996L166.896 237.363C166.896 237.363 166.941 237.634 167.123 237.634H174.237C174.237 237.634 174.508 237.544 174.418 237.363ZM174.418 237.363L170.793 224.996C170.793 224.996 170.702 224.815 170.657 224.86C170.566 224.86 170.521 224.906 170.521 224.996L166.896 237.363C166.896 237.363 166.941 237.634 167.123 237.634H174.237C174.237 237.634 174.508 237.544 174.418 237.363ZM241.887 224.996C241.887 224.996 241.887 224.815 241.751 224.86C241.706 224.86 241.661 224.906 241.615 224.996L238.036 237.363C238.036 237.363 238.036 237.634 238.217 237.634H245.376C245.376 237.634 245.603 237.544 245.558 237.363L241.887 224.996ZM241.887 224.996C241.887 224.996 241.887 224.815 241.751 224.86C241.706 224.86 241.661 224.906 241.615 224.996L238.036 237.363C238.036 237.363 238.036 237.634 238.217 237.634H245.376C245.376 237.634 245.603 237.544 245.558 237.363L241.887 224.996ZM174.418 237.363L170.793 224.996C170.793 224.996 170.702 224.815 170.657 224.86C170.566 224.86 170.521 224.906 170.521 224.996L166.896 237.363C166.896 237.363 166.941 237.634 167.123 237.634H174.237C174.237 237.634 174.508 237.544 174.418 237.363ZM321.41 204.204H0.601562L14.3764 231.927L0.601562 259.649H321.41L307.635 231.927L321.41 204.204ZM56.2445 248.687H48.9039C48.5416 248.687 48.3151 248.551 48.2243 248.234L47.001 243.931C47.001 243.931 46.8648 243.749 46.7291 243.749H35.8089C35.8089 243.749 35.6276 243.84 35.5823 243.931L34.3136 248.234C34.223 248.551 33.9964 248.687 33.6792 248.687H26.3387C26.1121 248.687 25.9762 248.642 25.8856 248.551C25.795 248.415 25.795 248.234 25.8403 248.007L36.0807 215.619C36.2167 215.302 36.3979 215.166 36.7151 215.166H45.7776C46.0945 215.166 46.3214 215.302 46.4118 215.619L56.743 248.007C56.743 248.007 56.7883 248.189 56.7883 248.279C56.7883 248.551 56.6072 248.687 56.2445 248.687ZM84.3379 248.143C84.3379 248.143 84.2925 248.415 84.1568 248.551C84.066 248.642 83.9303 248.687 83.7487 248.687H60.8665C60.8665 248.687 60.5492 248.642 60.4585 248.551C60.3227 248.415 60.2773 248.279 60.2773 248.143V215.71C60.2773 215.71 60.3227 215.438 60.4585 215.302C60.5492 215.212 60.685 215.166 60.8665 215.166H67.663C67.663 215.166 67.9349 215.166 68.071 215.302C68.1614 215.438 68.2522 215.574 68.2522 215.71V241.666C68.2522 241.666 68.2522 241.892 68.4787 241.892H83.7487C83.7487 241.892 84.066 241.938 84.1568 242.073C84.2925 242.164 84.3379 242.3 84.3379 242.481V248.143ZM122.491 226.083C122.491 226.083 122.445 226.355 122.354 226.491C122.219 226.582 122.083 226.627 121.947 226.627H115.105C115.105 226.627 114.833 226.582 114.697 226.491C114.606 226.355 114.561 226.219 114.561 226.083C114.561 224.815 114.108 223.773 113.247 222.867C112.341 222.006 111.163 221.553 109.667 221.553C108.172 221.553 106.994 222.052 106.133 223.003C105.227 223.954 104.773 225.222 104.773 226.763V237.045C104.773 238.586 105.272 239.854 106.269 240.805C107.266 241.756 108.489 242.209 109.985 242.209C111.389 242.209 112.522 241.847 113.383 241.122C114.244 240.352 114.697 239.31 114.697 237.951V236.638C114.697 236.638 114.606 236.366 114.47 236.366H109.667C109.667 236.366 109.35 236.321 109.259 236.23C109.123 236.094 109.078 235.958 109.078 235.822V230.522C109.078 230.522 109.123 230.251 109.259 230.115C109.35 230.024 109.486 229.933 109.667 229.933H121.947C121.947 229.933 122.219 230.024 122.354 230.115C122.445 230.251 122.491 230.387 122.491 230.522V237.045C122.491 239.446 121.992 241.575 120.905 243.387C119.817 245.199 118.322 246.603 116.373 247.6C114.47 248.596 112.205 249.095 109.667 249.095C107.13 249.095 104.864 248.596 102.916 247.554C100.968 246.513 99.4722 245.108 98.43 243.251C97.3424 241.394 96.7986 239.219 96.7986 236.819V226.989C96.7986 224.543 97.3424 222.414 98.43 220.602C99.4722 218.745 100.968 217.341 102.916 216.299C104.864 215.257 107.084 214.759 109.667 214.759C112.25 214.759 114.425 215.257 116.373 216.208C118.322 217.205 119.817 218.518 120.905 220.24C121.992 221.916 122.491 223.773 122.491 225.857V226.083ZM152.034 248.143C152.034 248.143 151.989 248.415 151.898 248.551C151.762 248.642 151.626 248.687 151.49 248.687H144.648C144.648 248.687 144.376 248.642 144.24 248.551C144.149 248.415 144.104 248.279 144.104 248.143V235.369C144.104 235.369 144.014 235.143 143.833 235.143H134.861C134.861 235.143 134.634 235.233 134.634 235.369V248.143C134.634 248.143 134.589 248.415 134.453 248.551C134.362 248.642 134.226 248.687 134.045 248.687H127.248C127.248 248.687 126.976 248.642 126.84 248.551C126.75 248.415 126.659 248.279 126.659 248.143V215.71C126.659 215.71 126.75 215.438 126.84 215.302C126.976 215.212 127.112 215.166 127.248 215.166H134.045C134.045 215.166 134.362 215.166 134.453 215.302C134.589 215.438 134.634 215.574 134.634 215.71V228.076C134.634 228.076 134.725 228.348 134.861 228.348H143.833C143.833 228.348 144.104 228.257 144.104 228.076V215.71C144.104 215.71 144.149 215.438 144.24 215.302C144.376 215.212 144.512 215.166 144.648 215.166H151.49C151.49 215.166 151.762 215.166 151.898 215.302C151.989 215.438 152.034 215.574 152.034 215.71V248.143ZM185.655 248.687H178.315C177.952 248.687 177.726 248.551 177.635 248.234L176.412 243.931C176.412 243.931 176.276 243.749 176.185 243.749H165.219C165.219 243.749 165.038 243.84 164.993 243.931L163.724 248.234C163.633 248.551 163.407 248.687 163.09 248.687H155.749C155.523 248.687 155.387 248.642 155.296 248.551C155.206 248.415 155.206 248.234 155.251 248.007L165.537 215.619C165.628 215.302 165.809 215.166 166.126 215.166H175.188C175.505 215.166 175.732 215.302 175.823 215.619L186.154 248.007C186.154 248.007 186.199 248.189 186.199 248.279C186.199 248.551 186.018 248.687 185.655 248.687ZM220.319 248.687H213.477C213.114 248.687 212.933 248.506 212.842 248.189L208.674 229.662C208.674 229.662 208.583 229.48 208.538 229.48C208.447 229.48 208.402 229.526 208.402 229.662L204.641 248.189C204.596 248.506 204.369 248.687 204.006 248.687H197.618C197.255 248.687 197.028 248.551 196.938 248.234L188.011 215.755V215.574C187.966 215.302 188.148 215.166 188.51 215.166H195.76C196.077 215.166 196.303 215.302 196.394 215.619L200.563 233.059C200.563 233.059 200.654 233.286 200.699 233.286C200.789 233.286 200.835 233.195 200.88 233.059L204.596 215.664C204.641 215.302 204.867 215.166 205.23 215.166H211.891C212.208 215.166 212.435 215.302 212.525 215.619L216.694 233.059C216.694 233.059 216.739 233.286 216.83 233.286C216.875 233.286 216.92 233.195 216.966 233.059L220.862 215.664C220.908 215.302 221.134 215.166 221.497 215.166H228.565C229.019 215.166 229.2 215.348 229.109 215.755L220.999 248.234C220.908 248.551 220.681 248.687 220.319 248.687ZM256.75 248.687H249.454C249.092 248.687 248.865 248.551 248.775 248.234L247.506 243.931C247.506 243.931 247.37 243.749 247.279 243.749H236.359C236.359 243.749 236.178 243.84 236.087 243.931L234.864 248.234C234.773 248.551 234.547 248.687 234.184 248.687H226.844C226.844 248.687 226.527 248.642 226.436 248.551C226.3 248.415 226.3 248.234 226.345 248.007L236.631 215.619C236.722 215.302 236.948 215.166 237.266 215.166H246.328C246.645 215.166 246.826 215.302 246.917 215.619L257.248 248.007C257.248 248.007 257.293 248.189 257.293 248.279C257.293 248.551 257.112 248.687 256.75 248.687ZM284.888 248.143C284.888 248.143 284.798 248.415 284.707 248.551C284.571 248.642 284.435 248.687 284.299 248.687H261.372C261.372 248.687 261.054 248.642 260.963 248.551C260.873 248.415 260.782 248.279 260.782 248.143V215.71C260.782 215.71 260.873 215.438 260.963 215.302C261.054 215.212 261.19 215.166 261.372 215.166H268.168C268.168 215.166 268.485 215.166 268.576 215.302C268.712 215.438 268.757 215.574 268.757 215.71V241.666C268.757 241.666 268.848 241.892 268.984 241.892H284.299C284.299 241.892 284.571 241.938 284.707 242.073C284.798 242.164 284.888 242.3 284.888 242.481V248.143ZM296.216 248.143C296.216 248.143 296.171 248.415 296.08 248.551C295.944 248.642 295.808 248.687 295.673 248.687H288.83C288.83 248.687 288.558 248.642 288.423 248.551C288.332 248.415 288.287 248.279 288.287 248.143V215.71C288.287 215.71 288.287 215.438 288.423 215.302C288.558 215.212 288.694 215.166 288.83 215.166H295.673C295.673 215.166 295.944 215.166 296.08 215.302C296.171 215.438 296.216 215.574 296.216 215.71V248.143ZM241.751 224.86C241.751 224.86 241.661 224.906 241.615 224.996L238.036 237.363C238.036 237.363 238.036 237.634 238.217 237.634H245.376C245.376 237.634 245.603 237.544 245.558 237.363L241.887 224.996C241.887 224.996 241.887 224.815 241.751 224.86ZM170.793 224.996C170.793 224.996 170.702 224.815 170.657 224.86C170.566 224.86 170.521 224.906 170.521 224.996L166.896 237.363C166.896 237.363 166.941 237.634 167.123 237.634H174.237C174.237 237.634 174.508 237.544 174.418 237.363L170.793 224.996ZM174.418 237.363L170.793 224.996C170.793 224.996 170.702 224.815 170.657 224.86C170.566 224.86 170.521 224.906 170.521 224.996L166.896 237.363C166.896 237.363 166.941 237.634 167.123 237.634H174.237C174.237 237.634 174.508 237.544 174.418 237.363ZM241.887 224.996C241.887 224.996 241.887 224.815 241.751 224.86C241.706 224.86 241.661 224.906 241.615 224.996L238.036 237.363C238.036 237.363 238.036 237.634 238.217 237.634H245.376C245.376 237.634 245.603 237.544 245.558 237.363L241.887 224.996ZM241.887 224.996C241.887 224.996 241.887 224.815 241.751 224.86C241.706 224.86 241.661 224.906 241.615 224.996L238.036 237.363C238.036 237.363 238.036 237.634 238.217 237.634H245.376C245.376 237.634 245.603 237.544 245.558 237.363L241.887 224.996ZM174.418 237.363L170.793 224.996C170.793 224.996 170.702 224.815 170.657 224.86C170.566 224.86 170.521 224.906 170.521 224.996L166.896 237.363C166.896 237.363 166.941 237.634 167.123 237.634H174.237C174.237 237.634 174.508 237.544 174.418 237.363ZM174.418 237.363L170.793 224.996C170.793 224.996 170.702 224.815 170.657 224.86C170.566 224.86 170.521 224.906 170.521 224.996L166.896 237.363C166.896 237.363 166.941 237.634 167.123 237.634H174.237C174.237 237.634 174.508 237.544 174.418 237.363ZM174.418 237.363L170.793 224.996C170.793 224.996 170.702 224.815 170.657 224.86C170.566 224.86 170.521 224.906 170.521 224.996L166.896 237.363C166.896 237.363 166.941 237.634 167.123 237.634H174.237C174.237 237.634 174.508 237.544 174.418 237.363Z" fill="#031D92"/>
<path d="M160.471 23.0586C88.7874 23.0586 30.4258 81.3572 30.4258 153.064C30.4258 169.553 33.507 185.317 39.1257 199.857C39.3522 200.446 39.5788 200.99 39.8055 201.579H45.4693C44.2005 198.634 43.0679 195.599 42.0711 192.519C37.9022 180.107 35.6819 166.835 35.6819 153.064C35.6819 84.2565 91.6422 28.3132 160.471 28.3132C229.3 28.3132 285.26 84.2565 285.26 153.064C285.26 166.518 283.13 179.473 279.143 191.658C278.055 195.011 276.786 198.317 275.427 201.579H281.091C281.635 200.265 282.133 198.951 282.632 197.638C287.706 183.731 290.47 168.738 290.47 153.11C290.47 81.448 232.154 23.1039 160.471 23.1039" fill="#031D92"/>
<path d="M2.23047 289.003V265.357C2.23047 264.95 2.45703 264.768 2.81952 264.768H6.62573C6.9429 264.768 7.16946 264.859 7.35072 265.176L12.5163 273.511C12.5163 273.511 12.7428 273.647 12.7881 273.511L17.999 265.176C18.1803 264.904 18.4068 264.768 18.724 264.768H22.5302C22.938 264.768 23.1193 264.995 23.1193 265.357V289.003C23.1193 289.41 22.8927 289.592 22.5302 289.592H18.724C18.3162 289.592 18.1349 289.365 18.1349 289.003V273.601C18.1349 273.601 17.999 273.33 17.8631 273.511L14.2834 279.354C14.1022 279.626 13.8756 279.762 13.5584 279.762H11.7459C11.4288 279.762 11.2022 279.671 11.021 279.354L7.48663 273.511C7.48663 273.511 7.26007 273.375 7.26007 273.601V289.003C7.26007 289.41 7.03351 289.592 6.67104 289.592H2.81952C2.41172 289.592 2.23047 289.365 2.23047 289.003Z" fill="#28BB76"/>
<path d="M42.7926 289.093L41.7957 285.786C41.7957 285.786 41.705 285.605 41.5688 285.605H32.8691C32.8691 285.605 32.6879 285.605 32.6426 285.786L31.6457 289.093C31.5551 289.41 31.3285 289.591 30.966 289.591H26.8426C26.4348 289.591 26.2083 289.319 26.3442 288.912L33.9113 265.22C34.0019 264.904 34.2285 264.722 34.591 264.722H39.802C40.1643 264.722 40.3908 264.904 40.4816 265.22L48.0487 288.912C48.1845 289.319 47.958 289.591 47.5503 289.591H43.4268C43.0641 289.591 42.8376 289.41 42.7472 289.093H42.7926ZM34.0925 281.754H40.3908C40.3908 281.754 40.6173 281.664 40.572 281.528L37.355 270.702C37.355 270.702 37.1284 270.52 37.0831 270.702L33.9113 281.528C33.9113 281.528 33.9113 281.754 34.0925 281.754Z" fill="#28BB76"/>
<path d="M51.2539 289.003V265.357C51.2539 264.95 51.4804 264.768 51.8427 264.768H55.5132C55.8305 264.768 56.057 264.859 56.2382 265.176L65.1191 279.943C65.1191 279.943 65.391 280.079 65.391 279.852V265.357C65.391 264.95 65.6175 264.768 65.9802 264.768H69.6957C70.1037 264.768 70.2849 264.995 70.2849 265.357V289.003C70.2849 289.41 70.0583 289.592 69.6957 289.592H66.0709C65.7537 289.592 65.5271 289.456 65.346 289.184L56.4193 274.281C56.4193 274.281 56.1474 274.145 56.1474 274.371V289.048C56.1474 289.456 55.9663 289.637 55.6036 289.637H51.8427C51.435 289.637 51.2539 289.41 51.2539 289.048V289.003Z" fill="#28BB76"/>
<path d="M92.5794 272.423C92.5794 276.953 89.3624 279.943 84.5139 279.943H79.4842C79.4842 279.943 79.2577 280.033 79.2577 280.169V289.002C79.2577 289.41 79.0312 289.591 78.6685 289.591H74.8622C74.4546 289.591 74.2734 289.365 74.2734 289.002V265.311C74.2734 264.904 74.5 264.722 74.8622 264.722H84.695C89.4074 264.722 92.5341 267.803 92.5341 272.423H92.5794ZM87.5952 272.514C87.5952 270.43 86.1449 269.026 83.9701 269.026H79.4842C79.4842 269.026 79.2577 269.116 79.2577 269.252V275.73C79.2577 275.73 79.3485 275.956 79.4842 275.956H83.9701C86.1449 275.956 87.5952 274.552 87.5952 272.559V272.514Z" fill="#28BB76"/>
<path d="M95.1523 280.985V273.375C95.1523 268.03 98.8679 264.451 104.487 264.451C110.105 264.451 113.866 268.03 113.866 273.375V280.985C113.866 286.376 110.151 289.999 104.487 289.999C98.8225 289.999 95.1523 286.376 95.1523 280.985ZM108.882 281.166V273.33C108.882 270.567 107.16 268.755 104.532 268.755C101.904 268.755 100.182 270.567 100.182 273.33V281.166C100.182 283.884 101.904 285.696 104.532 285.696C107.16 285.696 108.882 283.884 108.882 281.166Z" fill="#28BB76"/>
<path d="M121.494 289.093L115.241 265.448C115.151 265.04 115.332 264.768 115.785 264.768H119.818C120.181 264.768 120.407 264.95 120.452 265.312L123.805 279.49C123.805 279.49 124.077 279.671 124.077 279.49L127.294 265.312C127.385 264.95 127.566 264.768 127.929 264.768H131.962C132.324 264.768 132.55 264.95 132.641 265.312L136.13 279.49C136.13 279.49 136.357 279.671 136.357 279.49L139.574 265.312C139.665 264.95 139.846 264.768 140.208 264.768H144.06C144.468 264.768 144.649 265.04 144.558 265.448L138.849 289.093C138.758 289.456 138.532 289.637 138.169 289.637H134.272C133.91 289.637 133.683 289.456 133.593 289.093L130.058 274.009C130.058 274.009 129.832 273.782 129.786 274.009L126.479 289.093C126.388 289.456 126.207 289.637 125.844 289.637H122.22C121.857 289.637 121.63 289.41 121.54 289.093H121.494Z" fill="#28BB76"/>
<path d="M163.852 269.026H152.388C152.388 269.026 152.162 269.116 152.162 269.252V274.688C152.162 274.688 152.252 274.915 152.388 274.915H159.819C160.227 274.915 160.408 275.141 160.408 275.503V278.584C160.408 278.991 160.182 279.173 159.819 279.173H152.388C152.388 279.173 152.162 279.263 152.162 279.399V285.061C152.162 285.061 152.252 285.288 152.388 285.288H163.852C164.26 285.288 164.441 285.514 164.441 285.877V288.957C164.441 289.365 164.215 289.546 163.852 289.546H147.811C147.404 289.546 147.223 289.319 147.223 288.957V265.311C147.223 264.904 147.449 264.722 147.811 264.722H163.852C164.26 264.722 164.441 264.949 164.441 265.311V268.392C164.441 268.799 164.215 268.98 163.852 268.98V269.026Z" fill="#28BB76"/>
<path d="M181.024 289.138L176.674 279.489C176.674 279.489 176.538 279.308 176.447 279.308H173.23C173.23 279.308 173.004 279.399 173.004 279.535V289.002C173.004 289.41 172.777 289.591 172.415 289.591H168.609C168.201 289.591 168.02 289.365 168.02 289.002V265.311C168.02 264.904 168.246 264.722 168.609 264.722H178.577C183.154 264.722 186.189 267.757 186.189 272.197C186.189 275.413 184.468 277.859 181.659 278.81C181.522 278.81 181.477 278.991 181.568 279.082L186.28 288.866C186.507 289.274 186.28 289.591 185.873 289.591H181.84C181.522 289.591 181.251 289.41 181.115 289.138H181.024ZM172.958 269.252V275.231C172.958 275.231 173.049 275.458 173.185 275.458H177.807C179.801 275.458 181.205 274.19 181.205 272.287C181.205 270.385 179.801 269.071 177.807 269.071H173.185C173.185 269.071 172.958 269.162 172.958 269.297V269.252Z" fill="#28BB76"/>
<path d="M196.016 282.48V281.892C196.016 281.484 196.242 281.303 196.605 281.303H200.32C200.728 281.303 200.909 281.484 200.909 281.756V282.254C200.909 284.066 202.722 285.651 205.622 285.651C208.341 285.651 209.337 284.292 209.337 282.888C209.337 281.076 207.525 280.442 204.126 279.174C200.411 277.906 196.151 276.229 196.151 271.518C196.151 267.17 199.731 264.497 204.806 264.497C210.289 264.497 214.141 267.532 214.141 272.153V272.515C214.141 272.923 213.914 273.104 213.551 273.104H209.836C209.428 273.104 209.247 272.968 209.247 272.741V272.379C209.247 270.522 207.661 268.8 204.67 268.8C202.404 268.8 201.136 269.797 201.136 271.473C201.136 273.33 202.722 273.964 206.664 275.323C209.881 276.501 214.367 277.86 214.367 282.707C214.367 287.056 210.833 289.91 205.259 289.91C199.686 289.91 196.016 287.01 196.016 282.48Z" fill="#28BB76"/>
<path d="M217.688 281.347V265.311C217.688 264.904 217.914 264.722 218.277 264.722H222.083C222.491 264.722 222.672 264.949 222.672 265.311V281.392C222.672 283.883 224.349 285.605 226.886 285.605C229.423 285.605 231.1 283.883 231.1 281.392V265.311C231.1 264.904 231.327 264.722 231.689 264.722H235.495C235.903 264.722 236.084 264.949 236.084 265.311V281.347C236.084 286.466 232.369 289.863 226.886 289.863C221.403 289.863 217.688 286.466 217.688 281.347Z" fill="#28BB76"/>
<path d="M258.321 272.423C258.321 276.953 255.104 279.943 250.256 279.943H245.226C245.226 279.943 245 280.033 245 280.169V289.002C245 289.41 244.773 289.591 244.411 289.591H240.604C240.197 289.591 240.016 289.365 240.016 289.002V265.311C240.016 264.904 240.242 264.722 240.604 264.722H250.437C255.15 264.722 258.276 267.803 258.276 272.423H258.321ZM253.337 272.514C253.337 270.43 251.887 269.026 249.712 269.026H245.226C245.226 269.026 245 269.116 245 269.252V275.73C245 275.73 245.09 275.956 245.226 275.956H249.712C251.887 275.956 253.337 274.552 253.337 272.559V272.514Z" fill="#28BB76"/>
<path d="M279.533 272.423C279.533 276.953 276.315 279.943 271.467 279.943H266.437C266.437 279.943 266.211 280.033 266.211 280.169V289.002C266.211 289.41 265.984 289.591 265.622 289.591H261.816C261.408 289.591 261.227 289.365 261.227 289.002V265.311C261.227 264.904 261.453 264.722 261.816 264.722H271.648C276.361 264.722 279.487 267.803 279.487 272.423H279.533ZM274.548 272.514C274.548 270.43 273.098 269.026 270.923 269.026H266.437C266.437 269.026 266.211 269.116 266.211 269.252V275.73C266.211 275.73 266.302 275.956 266.437 275.956H270.923C273.098 275.956 274.548 274.552 274.548 272.559V272.514Z" fill="#28BB76"/>
<path d="M282.613 289.003V265.357C282.613 264.95 282.84 264.768 283.202 264.768H287.009C287.416 264.768 287.598 264.995 287.598 265.357V285.107C287.598 285.107 287.688 285.333 287.824 285.333H299.243C299.651 285.333 299.832 285.56 299.832 285.923V289.003C299.832 289.41 299.606 289.592 299.243 289.592H283.202C282.795 289.592 282.613 289.365 282.613 289.003Z" fill="#28BB76"/>
<path d="M307.41 288.957V280.169C307.41 280.169 307.41 279.943 307.319 279.897L300.16 265.447C299.934 265.039 300.16 264.722 300.568 264.722H304.691C305.008 264.722 305.28 264.904 305.416 265.175L309.766 274.416C309.766 274.416 309.993 274.552 310.038 274.416L314.388 265.175C314.524 264.904 314.796 264.722 315.113 264.722H319.282C319.735 264.722 319.961 265.039 319.735 265.447L312.485 279.897C312.485 279.897 312.394 280.124 312.394 280.169V288.957C312.394 289.365 312.168 289.546 311.805 289.546H308.044C307.636 289.546 307.455 289.319 307.455 288.957H307.41Z" fill="#28BB76"/>
</g>
<defs>
<clipPath id="clip0_6324_38302">
<rect width="320.808" height="293.333" fill="white" transform="translate(0.597656)"/>
</clipPath>
</defs>
</svg>
