<svg width="22" height="22" viewBox="0 0 22 22" fill="none" xmlns="http://www.w3.org/2000/svg">
<g clip-path="url(#clip0_25_814)">
<path d="M10.69 16.98C10.57 16.98 10.45 16.93 10.37 16.84C10.18 16.64 5.8 11.89 5.8 9.29002C5.8 6.69002 7.99 4.40002 10.69 4.40002C13.39 4.40002 15.58 6.59002 15.58 9.29002C15.58 11.99 11.19 16.64 11.01 16.84C10.93 16.93 10.81 16.98 10.69 16.98ZM10.69 5.27002C8.47 5.27002 6.67 7.07002 6.67 9.29002C6.67 11.02 9.32 14.36 10.69 15.89C12.05 14.36 14.71 11.01 14.71 9.29002C14.71 7.07002 12.91 5.27002 10.69 5.27002Z" fill="#414142"/>
<path d="M10.69 11.28C9.48 11.28 8.49 10.29 8.49 9.08C8.49 7.87 9.48 6.88 10.69 6.88C11.9 6.88 12.89 7.87 12.89 9.08C12.89 10.29 11.9 11.28 10.69 11.28ZM10.69 7.75C9.96 7.75 9.36 8.35 9.36 9.08C9.36 9.81 9.96 10.41 10.69 10.41C11.42 10.41 12.02 9.81 12.02 9.08C12.02 8.35 11.42 7.75 10.69 7.75Z" fill="#414142"/>
<path d="M17.15 21.38H4.23C1.9 21.38 0 19.48 0 17.15V4.23C0 1.9 1.9 0 4.23 0H17.15C19.48 0 21.38 1.9 21.38 4.23V17.15C21.38 19.48 19.49 21.38 17.15 21.38ZM4.23 1C2.45 1 1 2.45 1 4.22V17.14C1 18.92 2.45 20.36 4.23 20.36H17.15C18.93 20.36 20.37 18.91 20.37 17.14V4.23C20.37 2.45 18.92 1.01 17.15 1.01H4.23V1Z" fill="#414142"/>
</g>
<defs>
<clipPath id="clip0_25_814">
<rect width="21.38" height="21.38" fill="white"/>
</clipPath>
</defs>
</svg>
