<svg width="22" height="22" viewBox="0 0 22 22" fill="none" xmlns="http://www.w3.org/2000/svg">
<g clip-path="url(#clip0_25_805)">
<path d="M15.2 5.59998H6.18001C5.17001 5.59998 4.35001 6.41998 4.35001 7.42998V13.73C4.35001 14.74 5.17001 15.56 6.18001 15.56H15.2C16.21 15.56 17.03 14.74 17.03 13.73V7.42998C17.03 6.41998 16.21 5.59998 15.2 5.59998ZM15.2 6.47998C15.27 6.47998 15.35 6.47998 15.42 6.49998L11.61 10.82C11.38 11.08 11.04 11.24 10.69 11.24C10.34 11.24 10 11.09 9.77001 10.82L5.97001 6.49998C6.04001 6.47998 6.11001 6.47998 6.19001 6.47998H15.21H15.2ZM16.15 13.73C16.15 14.26 15.72 14.69 15.19 14.69H6.18001C5.65001 14.69 5.22001 14.26 5.22001 13.73V7.42998C5.22001 7.29998 5.25001 7.17998 5.29001 7.06998L9.10001 11.4C9.50001 11.85 10.07 12.11 10.68 12.11C11.29 12.11 11.86 11.85 12.26 11.4L16.08 7.06998C16.13 7.17998 16.15 7.29998 16.15 7.42998V13.73Z" fill="#414142"/>
<path d="M17.15 21.38H4.23C1.9 21.38 0 19.48 0 17.15V4.23C0 1.9 1.9 0 4.23 0H17.15C19.48 0 21.37 1.9 21.37 4.23V17.15C21.37 19.48 19.48 21.38 17.15 21.38ZM4.23 1C2.45 1 1 2.45 1 4.22V17.14C1 18.92 2.45 20.36 4.23 20.36H17.15C18.93 20.36 20.37 18.91 20.37 17.14V4.23C20.37 2.45 18.92 1.01 17.15 1.01H4.23V1Z" fill="#414142"/>
</g>
<defs>
<clipPath id="clip0_25_805">
<rect width="21.38" height="21.38" fill="white"/>
</clipPath>
</defs>
</svg>
