<svg width="71" height="45" viewBox="0 0 71 45" fill="none" xmlns="http://www.w3.org/2000/svg">
<path d="M35.545 0.678057C16.305 0.678057 0.654999 15.0337 0.654999 32.6824C0.654999 36.7369 1.485 40.6262 2.985 44.2036C3.045 44.3504 3.105 44.488 3.165 44.6256H4.685C4.345 43.9009 4.045 43.1579 3.765 42.3966C2.655 39.342 2.045 36.0764 2.045 32.6824C2.065 15.7492 17.085 1.96227 35.545 1.96227C54.005 1.96227 69.025 15.74 69.025 32.6732C69.025 35.9847 68.455 39.1769 67.385 42.1672C67.085 42.9928 66.755 43.8092 66.385 44.6072H67.905C68.045 44.2862 68.185 43.956 68.315 43.6349C69.675 40.2134 70.425 36.5259 70.425 32.6732C70.425 15.0245 54.775 0.668884 35.535 0.668884" fill="#253C7D"/>
</svg>
