<svg width="12" height="10" viewBox="0 0 12 10" fill="none" xmlns="http://www.w3.org/2000/svg">
<path d="M3.32502 9.11924L0.935023 1.12962V1.08375C0.925023 1.01037 0.965024 0.982849 1.06502 0.982849H3.01502C3.10502 0.982849 3.15502 1.01954 3.18502 1.1021L4.30502 5.39503C4.30502 5.39503 4.32502 5.4409 4.34502 5.4409C4.36502 5.4409 4.37502 5.42255 4.38502 5.39503L5.38502 1.11127C5.40502 1.02872 5.45502 0.982849 5.55502 0.982849H7.34502C7.43502 0.982849 7.48502 1.01954 7.51502 1.1021L8.63502 5.39503C8.63502 5.39503 8.65502 5.4409 8.67502 5.4409C8.69502 5.4409 8.70502 5.42255 8.71502 5.39503L9.75502 1.11127C9.77502 1.02872 9.82502 0.982849 9.92502 0.982849H11.825C11.945 0.982849 11.995 1.03789 11.965 1.13879L9.79502 9.12842C9.76502 9.21097 9.70502 9.24766 9.61502 9.24766H7.77502C7.67502 9.24766 7.62502 9.2018 7.60502 9.11924L6.48502 4.56029C6.48502 4.56029 6.46502 4.51443 6.44502 4.51443C6.42502 4.51443 6.41502 4.53278 6.40502 4.56029L5.40502 9.11924C5.38502 9.2018 5.33502 9.24766 5.23502 9.24766H3.51502C3.42502 9.24766 3.36502 9.21097 3.33502 9.12842" fill="white"/>
</svg>
