<svg width="8" height="10" viewBox="0 0 8 10" fill="none" xmlns="http://www.w3.org/2000/svg">
<path d="M0.705 9.19266C0.705 9.19266 0.654999 9.12845 0.654999 9.09176V1.11131C0.654999 1.11131 0.665 1.03792 0.705 1.0104C0.735 0.982884 0.774999 0.964539 0.814999 0.964539H2.645C2.645 0.964539 2.725 0.982884 2.755 1.0104C2.785 1.03792 2.805 1.07461 2.805 1.11131V7.49567C2.805 7.49567 2.825 7.5507 2.865 7.5507H6.965C6.965 7.5507 7.045 7.56905 7.075 7.58739C7.105 7.61491 7.115 7.65161 7.115 7.6883V9.08258C7.115 9.08258 7.105 9.15596 7.075 9.18348C7.045 9.211 7.005 9.22935 6.965 9.22935H0.814999C0.814999 9.22935 0.735 9.211 0.705 9.18348" fill="white"/>
</svg>
