<svg width="8" height="10" viewBox="0 0 8 10" fill="none" xmlns="http://www.w3.org/2000/svg">
<path d="M2.105 8.95414C1.585 8.70647 1.185 8.34873 0.894997 7.89008C0.604997 7.43143 0.464996 6.90857 0.464996 6.31233V3.89068C0.464996 3.29444 0.604997 2.77158 0.894997 2.31293C1.185 1.86346 1.585 1.50572 2.105 1.25805C2.625 1.01038 3.225 0.881958 3.915 0.881958C4.605 0.881958 5.195 1.00121 5.715 1.2397C6.235 1.4782 6.645 1.80842 6.935 2.22121C7.225 2.64316 7.365 3.10181 7.365 3.60632V3.66136C7.365 3.66136 7.355 3.73474 7.325 3.76226C7.295 3.78978 7.255 3.79895 7.215 3.79895H5.385C5.385 3.79895 5.305 3.78978 5.275 3.76226C5.245 3.73474 5.235 3.69805 5.235 3.66136C5.235 3.35865 5.115 3.09264 4.885 2.88166C4.645 2.66151 4.325 2.5606 3.925 2.5606C3.525 2.5606 3.215 2.67985 2.975 2.91835C2.735 3.15684 2.615 3.45955 2.615 3.83564V6.37654C2.615 6.75263 2.745 7.06451 3.015 7.29384C3.285 7.53233 3.615 7.65158 4.015 7.65158C4.395 7.65158 4.695 7.55986 4.925 7.3764C5.155 7.19294 5.275 6.93609 5.275 6.60587V6.27564C5.275 6.27564 5.255 6.21143 5.215 6.21143H3.925C3.925 6.21143 3.845 6.20226 3.815 6.17474C3.785 6.14722 3.775 6.11053 3.775 6.07384V4.78045C3.775 4.78045 3.785 4.70707 3.815 4.67955C3.845 4.65203 3.885 4.63369 3.925 4.63369H7.215C7.215 4.63369 7.295 4.65203 7.325 4.67955C7.355 4.70707 7.365 4.74376 7.365 4.78045V6.38572C7.365 6.97279 7.225 7.49564 6.935 7.94511C6.645 8.39459 6.245 8.74316 5.725 8.98166C5.205 9.22933 4.605 9.34857 3.915 9.34857C3.225 9.34857 2.625 9.22015 2.105 8.97249" fill="white"/>
</svg>
