<svg width="9" height="10" viewBox="0 0 9 10" fill="none" xmlns="http://www.w3.org/2000/svg">
<path d="M6.155 9.11925L5.825 8.07354C5.825 8.07354 5.785 8.02768 5.765 8.02768H2.835C2.835 8.02768 2.785 8.04602 2.775 8.07354L2.445 9.11925C2.415 9.20181 2.355 9.23851 2.265 9.23851H0.295003C0.245003 9.23851 0.205 9.22016 0.175 9.19264C0.145 9.16512 0.145001 9.12843 0.165001 9.07339L2.915 1.09294C2.945 1.01039 2.995 0.973694 3.085 0.973694H5.515C5.605 0.973694 5.655 1.01039 5.685 1.09294L8.455 9.07339C8.455 9.07339 8.465 9.11008 8.465 9.12843C8.465 9.20181 8.415 9.23851 8.325 9.23851H6.355C6.255 9.23851 6.205 9.20181 6.175 9.11925M3.325 6.50497H5.245C5.295 6.50497 5.315 6.47745 5.295 6.43159L4.315 3.39535C4.315 3.39535 4.295 3.34948 4.275 3.35865C4.255 3.35865 4.245 3.377 4.235 3.39535L3.275 6.43159C3.275 6.47745 3.275 6.50497 3.325 6.50497Z" fill="white"/>
</svg>
