<svg width="8" height="10" viewBox="0 0 8 10" fill="none" xmlns="http://www.w3.org/2000/svg">
<path d="M5.19498 1.01039C5.19498 1.01039 5.26499 0.973694 5.30499 0.973694H7.13499C7.13499 0.973694 7.21499 0.992041 7.24499 1.01039C7.27499 1.03791 7.29499 1.0746 7.29499 1.11129V9.09174C7.29499 9.09174 7.27499 9.16512 7.24499 9.19264C7.21499 9.22016 7.17499 9.23851 7.13499 9.23851H5.30499C5.30499 9.23851 5.22498 9.22016 5.19498 9.19264C5.16498 9.16512 5.14499 9.12843 5.14499 9.09174V5.9546C5.14499 5.9546 5.12499 5.89956 5.08499 5.89956H2.67498C2.67498 5.89956 2.61499 5.9179 2.61499 5.9546V9.09174C2.61499 9.09174 2.60499 9.16512 2.57499 9.19264C2.54499 9.22016 2.50498 9.23851 2.46498 9.23851H0.634987C0.634987 9.23851 0.554986 9.22016 0.524986 9.19264C0.494986 9.16512 0.484985 9.12843 0.484985 9.09174V1.11129C0.484985 1.11129 0.494986 1.03791 0.524986 1.01039C0.554986 0.982868 0.594987 0.973694 0.634987 0.973694H2.46498C2.46498 0.973694 2.54499 0.992041 2.57499 1.01039C2.60499 1.03791 2.61499 1.0746 2.61499 1.11129V4.1567C2.61499 4.1567 2.63498 4.21174 2.67498 4.21174H5.08499C5.08499 4.21174 5.14499 4.19339 5.14499 4.1567V1.11129C5.14499 1.11129 5.15498 1.03791 5.19498 1.01039Z" fill="white"/>
</svg>
