<svg width="27" height="32" viewBox="0 0 27 32" fill="none" xmlns="http://www.w3.org/2000/svg">
<path d="M26.405 30.9101C26.385 30.8183 26.355 30.7266 26.325 30.6349C26.135 30.1028 25.805 29.6075 25.395 29.1672C23.135 26.7547 18.245 25.7182 18.245 25.7182C13.395 25.2045 12.955 21.7463 12.955 21.7463C15.275 20.0401 16.235 17.6277 16.235 17.6277C19.695 16.3159 18.765 11.7295 18.765 11.7295C18.245 11.2158 17.225 6.2257 17.225 6.2257C12.395 -2.53445 3.65501 1.17142 2.15501 1.88691C2.10501 1.91443 2.06501 1.93277 2.02501 1.95112C1.96501 1.98781 1.92501 1.99698 1.92501 1.99698C0.875007 3.47382 0.355009 5.33593 0.165009 7.31728C0.225009 7.33563 0.285011 7.36315 0.335011 7.38149C0.705011 7.53743 0.975009 7.74841 1.00501 8.00525V10.592C1.25501 9.63803 1.68501 8.96841 2.53501 8.93172C2.53501 8.93172 2.53501 8.93172 2.55501 8.95006C2.60501 8.94089 2.66501 8.94089 2.72501 8.93172C2.72501 8.93172 4.72501 10.4544 3.38501 13.8392C3.38501 13.8392 2.74501 16.3526 1.15501 16.2517C1.10501 16.2517 1.05501 16.2517 0.99501 16.2517C0.99501 16.2517 0.945009 16.2517 0.915009 16.2517C0.915009 16.2976 0.935007 16.3343 0.945007 16.3801C1.16501 17.3983 1.39501 18.3248 1.59501 19.132C1.64501 19.3155 1.68501 19.4898 1.73501 19.6641C1.97501 20.5538 2.16501 21.2418 2.24501 21.6271C2.24501 21.6637 2.25501 21.6913 2.26501 21.7188C2.27501 21.7922 2.28501 21.8472 2.28501 21.8839C2.35501 23.003 1.54501 23.8836 1.32501 24.1038C1.28501 24.1404 1.27501 24.1588 1.27501 24.1588L2.00501 24.3056L2.72501 24.4523C3.30501 23.8836 3.62501 23.1681 3.75501 22.3609C6.78501 23.8102 9.48501 23.5167 11.975 22.1958C12.245 24.0762 13.345 25.177 14.875 25.8833C15.015 27.8555 13.935 29.4149 12.395 30.8367L12.355 30.8734L12.255 31.2403L12.165 31.5889H26.405C26.405 31.1577 26.405 30.8825 26.405 30.8825M3.62501 20.884C3.55501 20.8474 3.48501 20.8015 3.40501 20.7648C2.68501 20.4988 2.16501 20.1502 1.92501 19.6916C1.84501 19.5265 1.79501 19.3522 1.78501 19.1595C1.78501 19.1412 1.78501 19.1137 1.78501 19.0953C3.22501 19.3338 4.35501 18.9944 5.22501 18.1872C5.22501 18.1872 5.23501 18.178 5.24501 18.1689C5.17501 18.178 5.10501 18.1872 5.04501 18.1872C4.34501 18.2239 3.82501 18.0221 3.56501 17.4992C3.26501 16.903 3.29501 15.894 3.73501 14.3437C4.51501 12.3716 4.59501 10.1884 4.26501 7.86766C4.23501 7.65668 4.20501 7.4457 4.16501 7.23473C4.16501 7.21638 4.16501 7.20721 4.16501 7.18886C4.06501 6.58345 3.93501 5.95969 3.78501 5.33593C3.81501 5.33593 3.85501 5.3451 3.88501 5.35427C6.85501 5.95969 9.61501 6.07894 11.965 5.33593C13.575 5.02405 14.625 6.04224 14.995 8.65653C15.405 10.9222 15.295 13.032 14.125 14.8207C14.865 14.9675 15.485 14.1419 15.825 11.2341C16.445 10.0416 17.055 10.0325 17.645 11.8946C17.995 13.9493 17.495 15.7013 15.335 16.8755C12.575 21.572 9.01501 23.9295 3.62501 20.9024" fill="#253C7D"/>
</svg>
