<svg width="7" height="10" viewBox="0 0 7 10" fill="none" xmlns="http://www.w3.org/2000/svg">
<path d="M0.50502 9.19266C0.50502 9.19266 0.455017 9.12845 0.455017 9.09176V1.11131C0.455017 1.11131 0.46502 1.03792 0.50502 1.0104C0.53502 0.982884 0.575021 0.964539 0.615021 0.964539H2.44502C2.44502 0.964539 2.52502 0.982884 2.55502 1.0104C2.58502 1.03792 2.59502 1.07461 2.59502 1.11131V7.49567C2.59502 7.49567 2.61502 7.5507 2.65502 7.5507H6.75502C6.75502 7.5507 6.83502 7.56905 6.86502 7.58739C6.89502 7.61491 6.90502 7.65161 6.90502 7.6883V9.08258C6.90502 9.08258 6.89502 9.15596 6.86502 9.18348C6.83502 9.211 6.79502 9.22935 6.75502 9.22935H0.605019C0.605019 9.22935 0.525018 9.211 0.495018 9.18348" fill="white"/>
</svg>
