<svg width="38" height="34" viewBox="0 0 38 34" fill="none" xmlns="http://www.w3.org/2000/svg">
<path d="M37.455 33.2678C37.445 33.1302 37.425 32.9926 37.415 32.8642C37.155 30.9471 36.185 29.3785 33.835 28.5071C31.845 27.764 29.555 27.0486 27.025 26.3422C26.845 26.2964 26.665 26.2413 26.475 26.1955C26.435 26.1771 26.385 26.1588 26.345 26.1404C25.405 25.746 24.715 25.269 24.945 24.526C25.655 24.471 26.435 24.205 27.275 23.7463C27.325 23.7188 27.385 23.6821 27.435 23.6546C27.815 23.4344 28.215 23.1868 28.625 22.884C28.635 22.884 28.655 22.8657 28.675 22.8565C28.585 22.829 28.495 22.7923 28.415 22.7648C27.695 22.4988 27.175 22.1502 26.935 21.6824C26.855 21.5173 26.805 21.343 26.795 21.1504C26.795 21.132 26.795 21.1045 26.795 21.0862C28.235 21.3155 29.365 20.9853 30.235 20.178C30.235 20.178 30.245 20.1689 30.255 20.1597C30.315 20.1046 30.365 20.0496 30.425 19.9946C29.695 20.0129 29.105 19.8753 28.755 19.4992C28.355 19.0681 28.275 18.3159 28.625 17.1051C29.555 14.2523 29.725 11.9132 29.455 9.86766C29.425 9.64751 29.395 9.4457 29.355 9.23472C29.355 9.21638 29.355 9.2072 29.355 9.18886C29.245 8.55593 29.085 7.94134 28.895 7.35427C28.635 6.54705 28.325 5.77653 27.975 5.03352C27.975 5.03352 27.745 4.59322 27.225 3.97863C27.205 3.96029 27.185 3.93277 27.165 3.91442C25.985 2.54766 23.425 0.382844 18.875 0.144348C15.055 0.346153 12.635 1.89638 11.255 3.19893C11.215 3.23563 11.175 3.27232 11.145 3.30901C10.185 4.24465 9.77499 5.02435 9.77499 5.02435C9.66499 5.26284 9.56499 5.49217 9.46499 5.73066C9.34499 6.00585 9.23499 6.29021 9.12499 6.5654C9.03499 6.8039 8.94499 7.05157 8.86499 7.30841C8.83499 7.39096 8.81499 7.46435 8.79499 7.5469C8.76499 7.62946 8.74499 7.72119 8.72499 7.80375V7.82209C8.66499 8.03307 8.60499 8.24405 8.55499 8.4642C8.55499 8.4642 8.55499 8.48254 8.55499 8.49172C8.46499 8.88615 8.38499 9.28976 8.32499 9.70254C8.32499 9.74841 8.31499 9.79427 8.30499 9.84014C8.11499 11.2803 8.145 12.858 8.495 14.6651C8.525 14.7935 8.54499 14.9219 8.57499 15.0595C8.71499 15.7108 8.90499 16.3804 9.13499 17.0959C9.80499 19.3708 8.90499 20.0221 7.34499 19.9854C8.12499 20.811 9.12499 21.2237 10.405 21.1412C10.465 21.1412 10.525 21.1412 10.595 21.1228C10.715 21.1137 10.845 21.0953 10.975 21.077C10.975 21.9209 10.245 22.4621 9.09499 22.8474C9.52499 23.1592 9.94499 23.4253 10.345 23.6546C10.385 23.6729 10.415 23.6913 10.455 23.7188C11.315 24.1866 12.105 24.4618 12.825 24.5168C13.075 25.2874 12.315 25.7643 11.315 26.1771C11.315 26.1771 11.315 26.1771 11.305 26.1771C11.245 26.1955 11.195 26.2046 11.145 26.223C10.405 26.4248 9.685 26.6266 8.995 26.8376C8.635 26.9385 8.28499 27.0486 7.93499 27.1586C6.50499 27.5989 5.16499 28.0484 3.94499 28.4979C2.75499 28.9382 1.91499 29.5619 1.34499 30.3233C1.19499 30.5251 1.06499 30.7269 0.954994 30.9471C0.534994 31.7359 0.344993 32.644 0.304993 33.6164H2.00499C2.06499 32.1395 2.57499 29.7271 5.12499 29.351C5.18499 29.3418 5.23499 29.3326 5.29499 29.3234C6.37499 31.1856 7.54499 32.6807 8.90499 33.4237C8.90499 33.4237 8.90499 33.4237 8.91499 33.4237L11.065 33.3228C8.79499 32.057 6.82499 30.6627 6.14499 28.7364C7.86499 28.0668 9.61499 27.5531 11.435 27.3237C11.455 27.3237 11.485 27.3237 11.505 27.3237C13.325 26.5899 14.595 25.3883 14.955 23.4344C16.085 24.0031 17.285 24.4893 18.905 24.5168C20.525 24.4893 21.725 24.0031 22.855 23.4344C23.215 25.3883 24.485 26.5899 26.305 27.3237C28.145 27.5531 29.925 28.0668 31.675 28.7456C30.995 30.6719 29.025 32.0662 26.755 33.332L28.905 33.4329C30.275 32.6991 31.445 31.1947 32.525 29.3326C35.225 29.6262 35.755 32.1028 35.815 33.6164H37.515C37.515 33.4971 37.505 33.3779 37.495 33.2678M18.865 23.2418C13.935 23.572 11.705 18.2701 11.705 18.2701C10.005 18.5544 9.32499 15.8759 9.32499 15.8759C7.98499 12.4911 9.98499 10.9684 9.98499 10.9684C11.095 11.0143 11.495 12.1425 11.695 13.5643V10.0328C11.835 9.08796 15.035 8.87698 15.035 8.87698C14.785 7.1066 17.015 5.73984 17.015 5.73984C17.125 6.76721 16.335 8.30826 16.335 8.30826H21.385C21.385 8.30826 20.595 6.76721 20.705 5.73984C20.705 5.73984 22.935 7.11578 22.685 8.87698C22.685 8.87698 24.185 8.96871 25.175 9.3448C25.235 9.36314 25.295 9.39067 25.345 9.40901C25.715 9.56495 25.985 9.77593 26.015 10.0328V13.5643C26.205 12.2159 26.575 11.1243 27.565 10.9776C27.615 10.9684 27.675 10.9684 27.735 10.9592C27.735 10.9592 29.735 12.4819 28.395 15.8668C28.395 15.8668 27.755 18.3801 26.165 18.2792C26.145 18.2792 26.125 18.2792 26.105 18.2792C26.075 18.2792 26.045 18.2792 26.015 18.2701C26.015 18.2701 26.015 18.2701 26.015 18.2884C26.015 18.2884 25.985 18.3526 25.965 18.4077C25.575 19.2332 23.325 23.5445 18.875 23.251" fill="#27A46F"/>
</svg>
