<svg width="9" height="10" viewBox="0 0 9 10" fill="none" xmlns="http://www.w3.org/2000/svg">
<path d="M6.42502 9.11925L6.09502 8.07354C6.09502 8.07354 6.05502 8.02768 6.03502 8.02768H3.10502C3.10502 8.02768 3.05502 8.04602 3.04502 8.07354L2.71502 9.11925C2.68502 9.20181 2.63502 9.23851 2.53502 9.23851H0.56502C0.51502 9.23851 0.47502 9.22016 0.44502 9.19264C0.41502 9.16512 0.41502 9.12843 0.43502 9.07339L3.18502 1.09294C3.21502 1.01039 3.26502 0.973694 3.35502 0.973694H5.78502C5.87502 0.973694 5.92502 1.01039 5.95502 1.09294L8.72502 9.07339C8.72502 9.07339 8.73502 9.11008 8.73502 9.12843C8.73502 9.20181 8.68502 9.23851 8.59502 9.23851H6.62502C6.52502 9.23851 6.47502 9.20181 6.44502 9.11925M3.59502 6.50497H5.51502C5.56502 6.50497 5.58502 6.47745 5.56502 6.43159L4.58502 3.39535C4.58502 3.39535 4.56502 3.34948 4.54502 3.35865C4.52502 3.35865 4.51502 3.377 4.50502 3.39535L3.54502 6.43159C3.54502 6.47745 3.54502 6.50497 3.59502 6.50497Z" fill="white"/>
</svg>
