<svg width="27" height="33" viewBox="0 0 27 33" fill="none" xmlns="http://www.w3.org/2000/svg">
<path d="M23.405 11.9406C23.465 11.1701 23.545 10.1702 23.595 9.22543L23.405 11.9406ZM26.095 25.2322V25.1863L26.085 25.1038L24.875 23.0399L25.235 22.728L25.305 22.6638L26.775 21.3887L25.475 18.5268L23.465 13.6743L23.295 13.2707L23.545 14.0687L24.575 17.3527V19.0772L25.495 19.8018L25.375 20.1412V20.1596L25.345 20.2146C26.025 20.4623 21.655 23.1866 20.735 22.8656V21.6914H18.725V22.7463C15.385 22.2602 13.205 20.5999 12.105 17.8572C12.105 17.8572 7.75501 15.6098 10.575 11.7205C10.575 11.7205 12.145 12.6378 12.325 16.1877C12.325 16.1877 14.255 18.2149 13.065 15.0686C11.875 11.9223 11.825 4.48303 17.385 6.32679C17.385 6.32679 20.415 10.8124 22.965 8.61085L23.105 8.73009L23.275 8.86769L23.605 9.14288C23.645 8.52829 23.675 7.94122 23.685 7.46423C23.685 7.46423 23.625 7.4734 23.525 7.49175C23.475 7.50092 23.415 7.51009 23.335 7.51927C22.585 7.60182 20.875 7.67521 20.635 6.71205V6.65701L23.595 6.57446H23.695C23.695 6.46438 23.685 6.38182 23.665 6.33596C23.665 6.31761 23.665 6.30844 23.645 6.29927C23.595 6.22588 23.705 5.95987 23.915 5.59295C24.055 5.34528 24.235 5.06092 24.435 4.75821C25.105 3.74002 25.955 2.55671 26.115 2.33656C26.135 2.30904 26.145 2.29987 26.145 2.29987C26.115 2.27235 26.085 2.254 26.055 2.22649C23.485 0.144229 19.135 0.557013 19.105 0.758817C19.075 0.960622 15.135 2.03385 15.135 2.03385C10.575 2.63009 9.46501 6.27175 9.50501 10.9499C7.85501 14.7842 8.64501 17.2793 11.385 18.6919C11.905 20.0495 13.005 21.508 14.415 23.0307C14.545 25.3881 10.075 26.9934 4.48501 28.4152C3.24501 28.9931 2.33501 29.6719 1.75501 30.4333C1.32501 30.9836 1.07501 31.589 0.965009 32.2403C0.945009 32.3779 0.925009 32.5155 0.915009 32.6623H16.735C16.805 31.1487 17.325 28.6629 20.025 28.3785C20.025 28.3877 20.035 28.3969 20.045 28.406C20.095 28.3969 20.155 28.3877 20.215 28.3785C21.285 30.2406 22.465 31.7358 23.825 32.4696L25.805 32.3779C23.535 31.1121 21.565 29.7178 20.885 27.7915C22.605 27.131 24.355 26.6081 26.175 26.3788L26.075 25.2689L26.095 25.2322ZM23.765 25.8468C23.505 25.9385 23.215 26.0486 22.885 26.1678C20.805 26.9384 17.585 28.2409 16.295 29.3325C16.005 29.5802 15.825 29.8095 15.755 30.0205C15.755 30.0205 15.735 30.0021 15.715 29.9563C15.455 29.5251 14.035 27.131 14.195 26.1311C14.195 26.1311 15.505 24.6635 15.505 23.8471C16.855 24.9478 18.235 25.7459 19.705 25.7826C21.595 25.2414 22.935 24.4984 23.845 23.6178C24.025 24.3241 24.295 24.9754 24.785 25.4982C24.785 25.4982 24.395 25.6266 23.765 25.856M19.835 28.8463C18.225 29.571 17.525 30.8827 17.445 32.6164H22.815C22.875 32.6164 22.935 32.5981 22.995 32.5981C21.575 31.5248 20.575 30.259 19.835 28.8463ZM23.695 6.58363V6.8313V7.44588C23.695 7.19821 23.705 6.98724 23.705 6.80378C23.705 6.72122 23.705 6.64784 23.705 6.58363" fill="#253C7D"/>
</svg>
