<svg width="9" height="10" viewBox="0 0 9 10" fill="none" xmlns="http://www.w3.org/2000/svg">
<path d="M6.23502 9.11925L5.90502 8.07354C5.90502 8.07354 5.86501 8.02768 5.84501 8.02768H2.91502C2.91502 8.02768 2.86501 8.04602 2.85501 8.07354L2.52502 9.11925C2.49502 9.20181 2.44502 9.23851 2.34502 9.23851H0.375016C0.325016 9.23851 0.285017 9.22016 0.255017 9.19264C0.225017 9.16512 0.225019 9.12843 0.245019 9.07339L2.99501 1.09294C3.02501 1.01039 3.07502 0.973694 3.16502 0.973694H5.59501C5.68501 0.973694 5.73502 1.01039 5.76502 1.09294L8.53502 9.07339C8.53502 9.07339 8.54502 9.11008 8.54502 9.12843C8.54502 9.20181 8.49502 9.23851 8.40502 9.23851H6.43502C6.33502 9.23851 6.28502 9.20181 6.25502 9.11925M3.40502 6.50497H5.32502C5.37502 6.50497 5.39502 6.47745 5.37502 6.43159L4.39502 3.39535C4.39502 3.39535 4.37501 3.34948 4.35501 3.35865C4.33501 3.35865 4.32501 3.377 4.31501 3.39535L3.35501 6.43159C3.35501 6.47745 3.35502 6.50497 3.40502 6.50497Z" fill="white"/>
</svg>
